<?xml version="1.0" standalone="no"?>
<!DOCTYPE svg PUBLIC "-//W3C//DTD SVG 1.1//EN" "http://www.w3.org/Graphics/SVG/1.1/DTD/svg11.dtd" >
<svg xmlns="http://www.w3.org/2000/svg">
<metadata>
This is a custom SVG webfont generated by Font Squirrel.
Copyright   : Copyright c 2008 by Jos Buivenga All rights reserved
Designer    : Jos Buivenga
Foundry     : Jos Buivenga
Foundry URL : httpwwwjosbuivengademonnl
</metadata>
<defs>
<font id="MuseoSans100Italic" horiz-adv-x="1191" >
<font-face units-per-em="2048" ascent="1536" descent="-512" />
<missing-glyph horiz-adv-x="579" />
<glyph unicode=" "  horiz-adv-x="579" />
<glyph unicode="&#x09;" horiz-adv-x="579" />
<glyph unicode="&#xa0;" horiz-adv-x="579" />
<glyph unicode="!" horiz-adv-x="614" d="M127 0l27 125h120l-26 -125h-121zM213 358l211 1076h88l-211 -1076h-88z" />
<glyph unicode="&#x22;" horiz-adv-x="598" d="M250 1143l59 309h88l-59 -309h-88zM463 1143l59 309h88l-59 -309h-88z" />
<glyph unicode="#" horiz-adv-x="1499" d="M66 408l30 81h310l167 453h-309l31 82h309l152 410h90l-152 -410h387l152 410h90l-152 -410h304l-31 -82h-303l-168 -453h303l-31 -81h-303l-151 -408h-91l152 408h-387l-152 -408h-90l152 408h-309zM496 489h387l168 453h-387z" />
<glyph unicode="$" horiz-adv-x="1126" d="M51 154l66 61q4 -6 13 -16.5t43 -37t71 -47t99.5 -37t127.5 -16.5q152 0 267.5 95.5t115.5 242.5q0 90 -62.5 156t-152.5 108l-179 87q-89 45 -151.5 117.5t-62.5 174.5q0 152 130 277t322 137l39 193h88l-37 -193q92 -8 168 -40t105 -60l31 -29l-58 -70q-12 12 -34.5 32 t-99.5 51.5t-161 31.5q-172 0 -286.5 -103.5t-114.5 -226.5q0 -68 45 -122t112.5 -86.5t146.5 -74.5t146.5 -83t112.5 -112.5t45 -164.5q0 -164 -128 -288.5t-318 -135.5l-37 -188h-88l37 193q-70 6 -132.5 25.5t-102.5 44t-69.5 48t-41.5 39.5z" />
<glyph unicode="%" horiz-adv-x="1449" d="M14 0l1356 1434h117l-1358 -1434h-115zM242 1159q0 113 96 206t217 93q104 0 167.5 -63.5t63.5 -167.5q0 -119 -95 -211t-216 -92q-106 0 -169.5 63t-63.5 172zM330 1153q0 -63 41 -105t108 -42q86 0 152.5 66.5t66.5 156.5q0 63 -41 105t-106 42q-86 0 -153.5 -67.5 t-67.5 -155.5zM705 211q0 113 96 206t217 93q104 0 167.5 -63.5t63.5 -167.5q0 -119 -95 -211.5t-216 -92.5q-106 0 -169.5 63.5t-63.5 172.5zM793 205q0 -63 40.5 -105.5t108.5 -42.5q86 0 152.5 66.5t66.5 157.5q0 63 -41 105t-106 42q-86 0 -153.5 -67.5t-67.5 -155.5z " />
<glyph unicode="&#x26;" horiz-adv-x="1363" d="M86 328q0 152 98.5 279.5t255.5 168.5v4q-6 2 -16 6.5t-37 24.5t-47.5 46t-36.5 74t-16 107q0 178 134 299t341 121q37 0 78 -6t65 -10l23 -6l-41 -76q-74 16 -127 16q-158 0 -268.5 -94t-110.5 -244q0 -96 62.5 -159.5t238.5 -63.5h334l41 209h88l-41 -209h199l-17 -82 h-199l-45 -229q-104 -528 -542 -529q-195 0 -304.5 96.5t-109.5 256.5zM178 328q0 -117 85 -192t237 -75q367 0 454 443l45 229h-329q-207 0 -349.5 -107.5t-142.5 -297.5z" />
<glyph unicode="'" horiz-adv-x="385" d="M250 1143l59 309h88l-59 -309h-88z" />
<glyph unicode="(" horiz-adv-x="563" d="M152 344q0 627 411 1141h94q-422 -537 -421 -1143q0 -279 96 -537h-86q-94 256 -94 539z" />
<glyph unicode=")" horiz-adv-x="569" d="M-80 -195q422 537 422 1143q0 279 -96 537h86q94 -256 94 -539q0 -627 -412 -1141h-94z" />
<glyph unicode="*" horiz-adv-x="962" d="M195 1124l43 84l294 -110l56 336h96l-76 -336l342 108l13 -86l-342 -100v-4l145 -262l-76 -52l-139 275h-4l-244 -272l-67 53l253 268v4z" />
<glyph unicode="+" horiz-adv-x="1398" d="M158 539l14 82h485l107 538h88l-107 -538h484l-15 -82h-483l-106 -539h-88l106 539h-485z" />
<glyph unicode="," horiz-adv-x="501" d="M-53 -193l172 318h112l-194 -318h-90z" />
<glyph unicode="-" horiz-adv-x="722" d="M66 539l14 82h565l-14 -82h-565z" />
<glyph unicode="." horiz-adv-x="489" d="M70 0l24 129h125l-24 -129h-125z" />
<glyph unicode="/" horiz-adv-x="786" d="M-41 -86l829 1602h97l-830 -1602h-96z" />
<glyph unicode="0" horiz-adv-x="1280" d="M145 428q0 119 19.5 250t69 272.5t120 252t184 183t253.5 72.5q385 0 385 -457q0 -152 -34 -317.5t-104.5 -330.5t-203 -271.5t-304.5 -106.5q-385 0 -385 453zM236 424q0 -362 296 -363q119 0 217.5 67t159 168t101.5 231t57 249t16 228q0 369 -295 368 q-139 0 -250.5 -92t-174 -238.5t-95 -305t-32.5 -312.5z" />
<glyph unicode="1" horiz-adv-x="903" d="M2 0l14 82h326l225 1157l17 72h-4q-20 -27 -95 -88l-196 -166l-53 65l370 312h88l-264 -1352h318l-17 -82h-729z" />
<glyph unicode="2" horiz-adv-x="1140" d="M23 0q4 117 59 217t140 173t189 139l205 129q102 62 187.5 128t137.5 152t52 184q0 113 -73.5 181.5t-206.5 68.5q-102 0 -199.5 -51t-144.5 -100l-47 -52l-64 52q8 10 22.5 25.5t61.5 56t96 72.5t125 57.5t152 25.5q184 0 277 -92t93 -242q0 -145 -90 -264t-223 -204 l-268 -164q-135 -80 -243.5 -184.5t-133.5 -225.5h782l-16 -82h-870z" />
<glyph unicode="3" horiz-adv-x="1140" d="M12 174l70 59q4 -6 13 -18t43 -42t73 -52.5t103.5 -41t134.5 -18.5q160 0 294 123t134 297q0 133 -93.5 204t-234.5 71h-107l-12 61l494 469l75 66v4q-39 -4 -110 -4h-580l17 82h821l-12 -62l-568 -534q49 0 98.5 -9.5t105.5 -34t98 -62.5t71 -103.5t29 -147.5 q0 -203 -161 -354.5t-364 -151.5q-248 0 -403 164z" />
<glyph unicode="4" horiz-adv-x="1204" d="M39 410l12 61l920 963h92l-184 -942h213l-17 -82h-213l-80 -410h-88l80 410h-735zM186 492h605l131 671l30 129h-4l-90 -98l-672 -700v-2z" />
<glyph unicode="5" horiz-adv-x="1144" d="M41 182l76 51q4 -6 10 -18t32.5 -42t59.5 -52.5t89.5 -41t121.5 -18.5q184 0 327.5 133.5t143.5 317.5q0 133 -92 218t-242 85q-74 0 -147.5 -21.5t-110.5 -43.5l-37 -21l-63 23l215 682h668l-17 -82h-588l-133 -424l-30 -88h4q104 61 243 61q190 0 306 -108.5 t116 -280.5q0 -219 -170 -378t-393 -159q-84 0 -154.5 21.5t-111.5 52.5t-71 60.5t-40 50.5z" />
<glyph unicode="6" horiz-adv-x="1216" d="M135 483q0 102 30 227.5t94.5 257.5t153.5 241.5t219 179t277 69.5q72 0 136.5 -14t93.5 -29l28 -14l-53 -76q-82 47 -205 47q-121 0 -230.5 -58.5t-190 -154.5t-138 -209.5t-90.5 -236.5h4q76 90 189.5 143t234.5 53q174 0 277.5 -97t103.5 -267q0 -139 -62.5 -268.5 t-184.5 -215.5t-275 -86q-199 0 -305.5 140.5t-106.5 367.5zM227 453q0 -154 83 -273t231 -119q182 0 309 140.5t127 343.5q0 131 -79 204.5t-216 73.5q-92 0 -195.5 -44t-181.5 -133t-78 -193z" />
<glyph unicode="7" horiz-adv-x="1040" d="M80 0l835 1219l103 133v4q-41 -4 -113 -4h-688l16 82h908l-13 -62l-948 -1372h-100z" />
<glyph unicode="8" horiz-adv-x="1232" d="M96 344q0 80 34 158t77 128t99 97t83 63.5t47 26.5q-143 98 -143 244q0 156 134 276.5t345 120.5q184 0 281.5 -81t97.5 -224q0 -82 -38 -168t-93 -150.5t-89 -98.5t-57 -50q168 -106 168 -260q0 -193 -159.5 -322t-370.5 -129q-178 0 -297 96.5t-119 272.5zM190 344 q0 -131 93.5 -207t228.5 -76q168 0 302 102.5t134 260.5q0 51 -24.5 94t-74.5 78t-96 58.5t-121 58.5t-116 57q-37 -20 -78 -48t-104.5 -82t-103.5 -132t-40 -164zM387 1063q0 -51 21.5 -92t71.5 -76t89 -56.5t116 -57.5l110 -52q29 20 60.5 50t83.5 88.5t85 134t33 151.5 q0 100 -78 159.5t-207 59.5q-166 0 -275.5 -91t-109.5 -218z" />
<glyph unicode="9" horiz-adv-x="1216" d="M92 33l53 76q82 -47 205 -48q121 0 230.5 58.5t190.5 155t138.5 210t89.5 236.5h-4q-76 -90 -189.5 -143.5t-234.5 -53.5q-174 0 -277.5 97.5t-103.5 267.5q0 139 62.5 268t184.5 215t276 86q199 0 305 -140t106 -368q0 -102 -29.5 -227t-94 -257t-153.5 -241.5 t-219 -179.5t-278 -70q-72 0 -136 14.5t-93 28.5zM283 889q0 -129 77.5 -204t210.5 -75q92 0 196.5 44t184.5 133.5t80 193.5q0 154 -83 272.5t-230 118.5q-182 0 -309 -140t-127 -343z" />
<glyph unicode=":" horiz-adv-x="612" d="M125 0l25 129h124l-24 -129h-125zM299 895l25 129h125l-25 -129h-125z" />
<glyph unicode=";" horiz-adv-x="624" d="M-6 -193l172 318h113l-195 -318h-90zM311 895l25 129h125l-25 -129h-125z" />
<glyph unicode="&#x3c;" horiz-adv-x="1196" d="M104 543v73l900 404v-98l-773 -340v-4l773 -340v-99z" />
<glyph unicode="=" horiz-adv-x="1458" d="M252 375v82h934v-82h-934zM252 702v82h934v-82h-934z" />
<glyph unicode="&#x3e;" horiz-adv-x="1198" d="M182 139v99l772 340v4l-772 340v98l899 -404v-73z" />
<glyph unicode="?" horiz-adv-x="960" d="M190 0l27 125h121l-27 -125h-121zM227 1362q16 10 45 26.5t112 43t161 26.5q158 0 249 -82t91 -215q0 -100 -46 -183t-115 -141.5t-139.5 -112.5t-129 -125t-74.5 -150l-19 -91h-88l19 91q20 96 78.5 177t128.5 136l136 110q67 55 111 127t44 158q0 94 -68 154.5 t-182 60.5q-68 0 -137.5 -21.5t-104.5 -43.5l-37 -21z" />
<glyph unicode="@" horiz-adv-x="1593" d="M109 356q0 229 124.5 437t323.5 330t410 122q219 0 319 -84t100 -217q0 -35 -6 -72l-135 -694h144l-17 -82h-526q-152 0 -247 94.5t-95 239.5q0 180 144.5 322.5t320.5 142.5h323q4 29 4 45q0 98 -75.5 160.5t-245.5 62.5q-305 0 -539.5 -242.5t-234.5 -564.5 q0 -227 142 -374.5t374 -147.5l-17 -84q-254 0 -422.5 172t-168.5 434zM596 432q0 -111 72.5 -182.5t187.5 -71.5h297l123 635h-293q-150 0 -268.5 -115.5t-118.5 -265.5z" />
<glyph unicode="A" horiz-adv-x="1243" d="M-74 0l813 1434h92l261 -1434h-91l-88 496h-608l-280 -496h-99zM350 578h547l-102 581l-25 172h-4q-51 -111 -86 -172z" />
<glyph unicode="B" horiz-adv-x="1271" d="M102 0l281 1434h461q86 0 151 -25q170 -70 170 -268q0 -137 -70.5 -237.5t-185.5 -145.5v-4q80 -27 129 -101.5t49 -183.5q0 -147 -73.5 -261t-192.5 -167q-88 -41 -196 -41h-523zM207 82h405q94 0 162 31q100 45 160.5 138t60.5 216q0 115 -70.5 180.5t-191.5 65.5h-403 zM346 795h389q137 0 237.5 97t100.5 249q0 98 -60.5 154.5t-168.5 56.5h-389z" />
<glyph unicode="C" horiz-adv-x="1507" d="M133 586q0 233 122 436t318.5 319.5t413.5 116.5q96 0 182 -18.5t140.5 -45t94.5 -53t58 -45.5l17 -18l-62 -64l-17 18q-11 11 -50 38.5t-85 48t-121 38t-157 17.5q-195 0 -370 -104.5t-283.5 -287.5t-108.5 -396q0 -229 140.5 -378t371.5 -149q86 0 171 20.5t145.5 48.5 t109.5 56.5t74 48.5l23 21l51 -68l-28 -22q-17 -14 -76.5 -51t-122 -65t-158 -50.5t-189.5 -22.5q-279 0 -441.5 170.5t-162.5 440.5z" />
<glyph unicode="D" horiz-adv-x="1517" d="M102 0l281 1434h428q287 0 449.5 -144.5t162.5 -408.5q0 -369 -240.5 -625t-611.5 -256h-469zM205 82h348q334 0 556 227.5t222 567.5q0 227 -141 351t-389 124h-346z" />
<glyph unicode="E" horiz-adv-x="1165" d="M102 0l281 1434h784l-18 -82h-694l-115 -588h571l-16 -82h-569l-119 -600h733l-14 -82h-824z" />
<glyph unicode="F" horiz-adv-x="1052" d="M102 0l281 1434h723l-16 -82h-635l-117 -598h549l-17 -82h-548l-132 -672h-88z" />
<glyph unicode="G" horiz-adv-x="1554" d="M131 567q0 356 260 623.5t598 267.5q92 0 176 -16.5t138.5 -40t94.5 -47t58 -39.5l19 -17l-62 -65q-6 6 -17.5 15t-52 34t-86 43t-118 33.5t-150.5 15.5q-303 0 -534.5 -240.5t-231.5 -566.5q0 -225 136.5 -366.5t361.5 -141.5q88 0 176 26t151.5 62.5t113.5 74.5t75 65 l27 24l51 260h-254l14 82h344l-127 -653h-88l25 127l14 61h-4q-8 -8 -24.5 -22t-69.5 -51t-109.5 -66t-142.5 -51.5t-172 -22.5q-266 0 -428 166t-162 426z" />
<glyph unicode="H" horiz-adv-x="1529" d="M102 0l281 1434h88l-131 -674h909l131 674h88l-280 -1434h-88l133 678h-909l-134 -678h-88z" />
<glyph unicode="I" horiz-adv-x="532" d="M102 0l281 1434h88l-281 -1434h-88z" />
<glyph unicode="J" horiz-adv-x="1044" d="M23 285q0 39 12 106l8 45h88l-8 -45q-10 -51 -10 -92q0 -240 237 -240q121 0 224.5 80t136.5 252l184 961h-340l16 82h428l-204 -1055q-41 -211 -166 -307.5t-279 -96.5q-141 0 -234 76t-93 234z" />
<glyph unicode="K" horiz-adv-x="1187" d="M102 0l281 1434h88l-125 -639h258l543 639h106l-575 -678v-4l323 -752h-96l-303 713h-272l-140 -713h-88z" />
<glyph unicode="L" horiz-adv-x="1028" d="M102 0l281 1434h88l-264 -1352h684l-19 -82h-770z" />
<glyph unicode="M" horiz-adv-x="1734" d="M57 0l398 1434h80l241 -902l39 -161h4q53 90 101 161l593 902h91l-166 -1434h-88l127 1094l30 190h-4q-63 -121 -110 -190l-543 -818h-90l-225 818l-41 194h-5q-20 -125 -38 -194l-306 -1094h-88z" />
<glyph unicode="N" horiz-adv-x="1529" d="M102 0l281 1434h72l598 -1125q35 -66 82 -180h4q8 109 22 180l219 1125h88l-280 -1434h-72l-598 1124q-35 66 -82 181h-4q-8 -109 -22 -181l-220 -1124h-88z" />
<glyph unicode="O" horiz-adv-x="1695" d="M131 590q0 229 125 431t325.5 319.5t415.5 117.5q270 0 440.5 -168t170.5 -430q0 -233 -126 -439t-326 -326t-415 -120q-270 0 -440 172.5t-170 442.5zM223 590q0 -233 144.5 -382t373.5 -149q190 0 369.5 107.5t292.5 294t113 397.5q0 227 -144.5 371.5t-374.5 144.5 q-195 0 -373 -104.5t-289.5 -287.5t-111.5 -392z" />
<glyph unicode="P" horiz-adv-x="1220" d="M102 0l281 1434h448q143 0 230 -50q158 -88 158 -286q0 -162 -84 -286t-217 -179q-96 -39 -207 -39h-404l-117 -594h-88zM324 676h378q100 0 181 33q111 47 177 148t66 241q0 121 -77.5 187.5t-217.5 66.5h-376z" />
<glyph unicode="Q" horiz-adv-x="1718" d="M131 590q0 229 125 431t325.5 319.5t415.5 117.5q270 0 440.5 -168t170.5 -430q0 -184 -81 -354t-218 -297l141 -186l-61 -54l-144 189q-233 -182 -503.5 -182.5t-440.5 172t-170 442.5zM223 590q0 -233 144.5 -382t373.5 -149q244 0 455 166l-147 195l61 53l147 -197 q119 115 189 266.5t70 315.5q0 227 -144.5 371.5t-374.5 144.5q-195 0 -373 -104.5t-289.5 -287.5t-111.5 -392z" />
<glyph unicode="R" horiz-adv-x="1265" d="M104 0l279 1434h455q123 0 198 -39q158 -82 158 -281q0 -176 -108.5 -304t-270.5 -159v-4q8 -16 21 -51l208 -596h-94l-221 635h-414l-122 -635h-89zM332 717h379q164 0 277.5 111.5t113.5 285.5q0 111 -69.5 174.5t-194.5 63.5h-383z" />
<glyph unicode="S" horiz-adv-x="1093" d="M35 154l65 61q4 -6 13.5 -16.5t43 -37t70.5 -47t99.5 -37t128.5 -16.5q152 0 267.5 95.5t115.5 242.5q0 90 -62.5 156t-152.5 108l-180 87q-89 45 -151.5 117.5t-62.5 174.5q0 162 142.5 289t349.5 127q215 0 342 -119l12 -12l-57 -70q-12 12 -34.5 32t-99.5 51.5 t-161 31.5q-172 0 -286.5 -103.5t-114.5 -226.5q0 -68 45 -122t112.5 -86.5t146.5 -74.5t146.5 -83t112.5 -112.5t45 -164.5q0 -170 -137.5 -297t-337.5 -127q-129 0 -233.5 45.5t-145.5 90.5z" />
<glyph unicode="T" horiz-adv-x="1187" d="M156 1352l14 82h1157l-14 -82h-537l-262 -1352h-88l262 1352h-532z" />
<glyph unicode="U" horiz-adv-x="1472" d="M168 383q0 55 12 117l182 934h89l-183 -936q-10 -47 -10 -107q0 -158 98.5 -245t274.5 -87q203 0 347 119t185 324l183 932h88l-189 -953q-45 -236 -212 -371t-402 -135q-215 0 -339 109t-124 299z" />
<glyph unicode="V" horiz-adv-x="1234" d="M190 1434h89l204 -1160l23 -172h4q51 104 90 172l657 1160h99l-815 -1434h-97z" />
<glyph unicode="W" horiz-adv-x="1873" d="M248 1434h88l74 -1168l4 -153h4l71 153l570 1168h102l80 -1168l4 -153h4l66 153l530 1168h99l-658 -1434h-110l-78 1081l-6 228h-5q-57 -133 -102 -226l-532 -1083h-107z" />
<glyph unicode="X" horiz-adv-x="1167" d="M-53 0l608 764l-281 670h95l186 -453l66 -160h4q59 86 116 156l369 457h111l-553 -684l321 -750h-94l-229 539l-62 153h-4q-55 -80 -113 -149l-436 -543h-104z" />
<glyph unicode="Y" horiz-adv-x="1126" d="M184 1434h95l227 -566l59 -161h4l119 159l449 568h108l-645 -813l-123 -621h-88l123 623z" />
<glyph unicode="Z" horiz-adv-x="1193" d="M-29 0l15 70l1001 1151l125 131v4q-31 -4 -102 -4h-734l19 82h948l-14 -70l-1004 -1151l-125 -131v-4q31 4 103 4h780l-14 -82h-998z" />
<glyph unicode="[" horiz-adv-x="544" d="M70 -195l325 1680h221l-16 -82h-133l-293 -1516h133l-16 -82h-221z" />
<glyph unicode="\" horiz-adv-x="772" d="M252 1516h86l205 -1602h-86z" />
<glyph unicode="]" horiz-adv-x="544" d="M-59 -195l16 82h133l293 1516h-133l16 82h221l-325 -1680h-221z" />
<glyph unicode="^" horiz-adv-x="1228" d="M39 516l403 918h66l403 -918h-94l-342 795l-342 -795h-94z" />
<glyph unicode="_" horiz-adv-x="1173" d="M-55 -82l14 82h1016l-14 -82h-1016z" />
<glyph unicode="`" horiz-adv-x="1042" d="M309 1763h107l92 -227h-82z" />
<glyph unicode="a" horiz-adv-x="1056" d="M29 231.5q0 116.5 65.5 199.5t177 122t221 55.5t232.5 16.5h80q14 80 14 131q0 209 -229 209q-80 0 -158 -25t-117 -49l-36 -25l-37 78q16 12 43.5 29.5t119 46.5t185.5 29q319 0 319 -281q0 -51 -12 -117l-127 -651h-86l27 133l24 94h-4q2 0 -13.5 -25.5t-48 -63.5 t-77.5 -74.5t-113.5 -62.5t-142.5 -26q-131 0 -219 70t-88 186.5zM119 240q0 -78 57 -131.5t168 -53.5q154 0 276.5 137.5t159.5 305.5l11 47h-66q-606 0 -606 -305z" />
<glyph unicode="b" horiz-adv-x="1189" d="M61 0l279 1434h86l-100 -523l-29 -94h4q57 102 164.5 167t230.5 65q178 0 275.5 -107.5t97.5 -296.5q0 -289 -167 -479.5t-390 -190.5q-123 0 -211 60.5t-119 171.5h-4q0 -47 -10 -101l-21 -106h-86zM231 377q0 -139 71 -228.5t210 -89.5q178 0 322.5 162t144.5 420 q0 152 -76 238t-207 86q-139 0 -247.5 -90.5t-163 -223.5t-54.5 -274z" />
<glyph unicode="c" horiz-adv-x="1132" d="M80 403q0 279 192.5 462.5t432.5 183.5q219 0 344 -127l16 -19l-61 -63q-10 14 -33 34.5t-98.5 55.5t-163.5 35q-205 0 -372 -158t-167 -395q0 -160 103.5 -256.5t261.5 -96.5q201 0 356 134l14 14l33 -78q-6 -6 -18.5 -16.5t-52.5 -37t-84 -47t-110.5 -37t-133.5 -16.5 q-201 0 -330 116.5t-129 311.5z" />
<glyph unicode="d" d="M82 379q0 289 167 479.5t390 190.5q121 0 210 -60.5t120 -171.5h4q0 47 10 94l102 523h86l-278 -1434h-86l22 119q8 47 25 88h-4q-57 -96 -160.5 -164t-232.5 -68q-180 0 -277.5 108t-97.5 296zM172 383q0 -152 76 -238t209 -86q137 0 246.5 92.5t163 225.5t53.5 270 q0 139 -71 228.5t-210 89.5q-178 0 -322.5 -162t-144.5 -420z" />
<glyph unicode="e" horiz-adv-x="1134" d="M82 403q0 254 172 450t424 196q178 0 267 -99.5t89 -263.5q0 -33 -7 -73t-13 -64l-6 -23h-822q-12 -59 -12 -112q0 -156 94 -255.5t267 -99.5q176 0 331 121l11 8l32 -77q-18 -14 -51 -37t-131 -61t-192 -38q-201 0 -327 116.5t-126 311.5zM207 606h727q8 39 8 86 q0 137 -72.5 207t-191.5 70q-150 0 -280 -95.5t-191 -267.5z" />
<glyph unicode="f" horiz-adv-x="632" d="M106 0l183 940h-129l14 78h129l10 51q18 96 57.5 168t81.5 109.5t93 61.5t86 30t69 6l64 -4l-19 -80q-16 4 -45 4q-39 0 -75.5 -10.5t-83.5 -38t-85 -92t-57 -156.5l-10 -49h281l-15 -78h-280l-182 -940h-87z" />
<glyph unicode="g" horiz-adv-x="1175" d="M18 -350l50 71q119 -68 266 -67q172 0 296 88t161 264l22 109q8 47 27 94h-4q-131 -209 -365 -209q-178 0 -282.5 108.5t-104.5 292.5q0 150 59.5 295.5t186.5 249t291 103.5q125 0 218 -47.5t119 -153.5h5q-2 25 2 49l24 127h86l-198 -1028q-43 -219 -190.5 -322.5 t-342.5 -103.5q-179 0 -326 80zM174 403q0 -150 80 -234.5t219 -84.5q109 0 195 57.5t138 148.5t78.5 194.5t26.5 205.5q0 274 -286 275q-205 0 -328 -172.5t-123 -389.5z" />
<glyph unicode="h" horiz-adv-x="1202" d="M61 0l279 1434h86l-111 -580l-26 -94h4q51 102 181 195.5t298 93.5q141 0 213 -67t72 -191q0 -59 -17 -142l-125 -649h-86l119 618q18 96 19 156q0 94 -53.5 142.5t-143.5 48.5q-186 0 -338.5 -143.5t-191.5 -342.5l-93 -479h-86z" />
<glyph unicode="i" horiz-adv-x="448" d="M61 0l201 1024h86l-201 -1024h-86zM303 1284l31 150h102l-30 -150h-103z" />
<glyph unicode="j" horiz-adv-x="448" d="M-307 -416l16 80q16 -4 45 -4q37 0 75 10.5t85 38t85 92t56 156.5l207 1067h86l-207 -1065q-23 -119 -70.5 -201t-107 -117.5t-105.5 -48t-94 -12.5zM303 1284l29 150h102l-28 -150h-103z" />
<glyph unicode="k" horiz-adv-x="980" d="M61 0l281 1434h86l-160 -813h174l414 403h117l-455 -442v-4l291 -578h-98l-269 541h-188l-107 -541h-86z" />
<glyph unicode="l" horiz-adv-x="475" d="M88 158q0 27 6 59l238 1217h86l-234 -1203q-6 -35 -6 -59q0 -43 17.5 -66.5t36 -27.5t47.5 -4l26 2l-18 -80q-16 -4 -35 -4q-35 0 -67.5 9t-64.5 49t-32 108z" />
<glyph unicode="m" horiz-adv-x="1882" d="M61 0l199 1024h86l-33 -170l-26 -94h4q61 123 188 206t262 83q145 0 207 -71t62 -208h4q63 121 185 200t255 79q139 0 211 -69t72 -196q0 -57 -17 -135l-125 -649h-86l119 618q18 96 19 150q0 201 -205 201q-170 0 -305.5 -146.5t-167.5 -322.5l-97 -500h-86l119 618 q18 96 19 156q0 195 -197 195q-170 0 -309 -144.5t-174 -326.5l-97 -498h-86z" />
<glyph unicode="n" horiz-adv-x="1202" d="M61 0l199 1024h86l-31 -170q-8 -47 -28 -94h4q51 100 182 194.5t299 94.5q141 0 213 -67t72 -191q0 -59 -17 -142l-125 -649h-86l119 618q18 96 19 156q0 94 -53.5 142.5t-143.5 48.5q-188 0 -339.5 -143.5t-190.5 -342.5l-93 -479h-86z" />
<glyph unicode="o" horiz-adv-x="1275" d="M80 420q0 256 191.5 442.5t435.5 186.5q201 0 326.5 -123t125.5 -316q0 -258 -192.5 -446.5t-434.5 -188.5q-201 0 -326.5 125t-125.5 320zM170 422q0 -160 101.5 -261.5t260.5 -101.5q205 0 371 163t166 386q0 156 -101.5 256.5t-260.5 100.5q-209 0 -373 -161 t-164 -382z" />
<glyph unicode="p" d="M-18 -410l278 1434h86l-20 -113l-25 -92h4q57 98 158.5 164t232.5 66q178 0 276.5 -107.5t98.5 -296.5q0 -287 -167 -478.5t-386 -191.5q-125 0 -214 59.5t-120 172.5h-4q-2 -47 -12 -101l-100 -516h-86zM233 383q0 -141 72 -232.5t209 -91.5q178 0 322.5 162t144.5 420 q0 152 -76 238t-209 86q-137 0 -245.5 -91.5t-163 -222.5t-54.5 -268z" />
<glyph unicode="q" d="M82 377q0 289 168 480.5t391 191.5q123 0 210 -59.5t118 -170.5h4q2 35 10 82l23 123h86l-279 -1434h-86l100 516q10 53 29 101h-4q-59 -100 -159.5 -166t-235.5 -66q-178 0 -276.5 108t-98.5 294zM172 383q0 -150 76 -237t209 -87q137 0 246.5 92.5t164 225.5t54.5 270 q0 139 -71 228.5t-210 89.5q-178 0 -323.5 -162t-145.5 -420z" />
<glyph unicode="r" horiz-adv-x="696" d="M61 0l199 1024h86l-37 -184l-26 -95h4q59 123 158.5 205t222.5 82q29 0 61 -6l-18 -86q-33 4 -45 4q-88 0 -168 -56.5t-133.5 -143.5t-89 -177t-52.5 -176l-76 -391h-86z" />
<glyph unicode="s" horiz-adv-x="903" d="M8 123l60 59q4 -4 12 -13t35.5 -29.5t59.5 -37t84 -30t110 -13.5q106 0 191 60.5t85 163.5q0 57 -49 100t-120 73l-142 62q-72 33 -121 90.5t-49 134.5q0 143 110.5 224.5t253.5 81.5q92 0 167 -28t104 -54l26 -29l-59 -64q-8 10 -24.5 25.5t-79 40.5t-136.5 25 q-104 0 -188 -55.5t-84 -161.5q0 -59 49 -103.5t120 -74.5l142 -62q72 -33 121 -89.5t49 -135.5q0 -131 -108.5 -219.5t-255.5 -88.5q-72 0 -135.5 15.5t-103.5 37t-69.5 43t-42.5 35.5z" />
<glyph unicode="t" horiz-adv-x="641" d="M141 940l15 78h135l57 291h86l-57 -291h268l-14 -78h-269l-108 -563q-10 -49 -10 -101q0 -205 182 -204l59 4l-16 -80q-16 -4 -43 -4q-268 0 -268 280q0 51 12 119l106 549h-135z" />
<glyph unicode="u" d="M106 233q0 59 17 142l125 649h86l-119 -614q-18 -90 -18 -160q0 -90 45 -140.5t157 -50.5q184 0 332 149.5t182 340.5l93 475h86l-199 -1024h-86l33 170l26 94h-4q-55 -104 -181 -196.5t-296 -92.5q-123 0 -201 62.5t-78 195.5z" />
<glyph unicode="v" horiz-adv-x="958" d="M109 1024h88l155 -809l15 -111h4q31 61 59 111l469 809h96l-600 -1024h-82z" />
<glyph unicode="w" horiz-adv-x="1632" d="M115 1024h88l123 -809l12 -111h4l57 111l435 805h100l123 -805l14 -111h4l55 111l439 809h94l-559 -1024h-92l-131 801l-13 110h-4l-57 -110l-434 -801h-97z" />
<glyph unicode="x" horiz-adv-x="976" d="M-53 0l479 545l-250 479h100l183 -371l24 -57h2l43 51l322 377h108l-430 -489l275 -535h-96l-209 422l-29 59h-4l-41 -53l-369 -428h-108z" />
<glyph unicode="y" horiz-adv-x="1003" d="M-182 -373l49 68q43 -43 119 -43q125 0 237 182l109 174l-230 1016h91l178 -831l18 -97h2l55 97l500 831h98l-776 -1270q-115 -184 -282 -184q-105 0 -168 57z" />
<glyph unicode="z" horiz-adv-x="1021" d="M-27 0l13 70l766 780q90 94 96 94v4q-35 -4 -103 -4h-563l15 80h790l-14 -70l-768 -780l-46 -45q-24 -23 -38 -35l-15 -14v-4q37 4 105 4h614l-14 -80h-838z" />
<glyph unicode="{" horiz-adv-x="661" d="M113 616l16 82q8 0 20.5 3.5t45 19.5t60.5 39.5t55.5 72t39.5 109.5l33 166q74 375 352 375h17l-15 -80h-10q-25 0 -51.5 -7t-69.5 -33t-80 -90.5t-55 -162.5l-37 -190q-12 -61 -38.5 -110.5t-55.5 -76t-56.5 -45t-45.5 -24.5l-17 -5v-4q4 -2 12.5 -7t29 -22.5t35.5 -39 t27.5 -57t12.5 -76.5q0 -27 -6 -58l-43 -217q-12 -61 -13 -106q0 -61 17.5 -102.5t47.5 -57.5t50.5 -21.5t40.5 -5.5h10l-16 -80q-6 -2 -18 -2q-27 0 -56.5 8.5t-70.5 32t-67 78.5t-26 135q0 45 15 123l37 193q6 37 6 65q0 45 -13.5 79t-33 52.5t-40 29.5t-32.5 15z" />
<glyph unicode="|" horiz-adv-x="612" d="M266 -317v1925h88v-1925h-88z" />
<glyph unicode="}" horiz-adv-x="659" d="M-78 -197l15 82h10q27 0 53.5 7.5t69.5 33t78.5 90t54.5 162.5l41 215q12 63 38.5 114.5t55.5 79t56.5 45t43.5 23.5l19 4v5q-12 6 -31.5 19t-51.5 64.5t-32 112.5q0 27 6 58l37 192q12 61 12 107q0 61 -18.5 102t-47 57.5t-49 21.5t-40.5 5h-11l17 80q8 2 18 2 q27 0 56.5 -8.5t70.5 -32t66.5 -78.5t25.5 -135q0 -43 -14 -123l-33 -168q-6 -38 -6 -66q0 -70 34 -114.5t66 -54.5l33 -9l-16 -82q-8 0 -20.5 -3t-45 -19.5t-60.5 -40t-55.5 -71.5t-39.5 -109l-37 -191q-76 -377 -352 -377h-17z" />
<glyph unicode="~" horiz-adv-x="1196" d="M145 436q0 152 64.5 223.5t171.5 71.5q63 0 113.5 -23.5t82.5 -56.5l61 -65q30 -33 72 -56.5t93 -23.5q63 0 100 43t45 85t8 89h82q0 -152 -64.5 -223.5t-170.5 -71.5q-63 0 -113.5 23.5t-82.5 56.5l-61 65q-30 33 -72 56.5t-93 23.5q-63 0 -100 -43t-45.5 -85t-8.5 -89 h-82z" />
<glyph unicode="&#xa1;" horiz-adv-x="534" d="M25 -410l211 1076h88l-211 -1076h-88zM262 899l27 125h121l-27 -125h-121z" />
<glyph unicode="&#xa2;" horiz-adv-x="1167" d="M139 569q0 162 61.5 318.5t192.5 273.5t303 125l33 172h88l-35 -174q78 -8 139.5 -42t94.5 -74t54.5 -78.5t27.5 -65.5l8 -27l-84 -32q-2 10 -6 25.5t-25.5 56t-50.5 72.5t-85 57.5t-126 25.5q-225 0 -360.5 -188.5t-135.5 -450.5q0 -152 76 -242t232 -90q68 0 132 25 t107 59.5t76 69.5t49 59l15 25l84 -33l-19 -29q-12 -19 -54 -67.5t-89 -86.5t-124 -70.5t-157 -37.5l-33 -172h-88l33 174q-158 18 -246 128t-88 294z" />
<glyph unicode="&#xa3;" horiz-adv-x="1179" d="M6 0l17 82h131l116 600h-92l17 82h90l67 342q29 147 157 249.5t298 102.5q178 0 291 -100l6 -6l-68 -62q-8 8 -26.5 22.5t-78 37t-124.5 22.5q-147 0 -246.5 -82t-122.5 -203l-63 -323h405l-16 -82h-406l-116 -600h719l-17 -82h-938z" />
<glyph unicode="&#xa5;" horiz-adv-x="1212" d="M199 455l14 82h334l18 86l-41 98h-274l16 82h226l-256 631h96l225 -566l61 -161h5q61 88 116 159l449 568h108l-501 -631h221l-17 -82h-270l-76 -98l-18 -86h328l-15 -82h-327l-91 -455h-88l90 455h-333z" />
<glyph unicode="&#xa7;" horiz-adv-x="806" d="M6 -57l62 61q49 -47 131 -47q119 0 196.5 79t83.5 195l58 973h86l-54 -985q-8 -141 -111.5 -243.5t-260.5 -102.5q-117 0 -191 70zM201 127l53 985q8 141 111.5 243.5t261.5 102.5q117 0 190 -69l-61 -62q-49 47 -131 47q-119 0 -197 -78.5t-84 -195.5l-57 -973h-86z" />
<glyph unicode="&#xa8;" horiz-adv-x="1042" d="M215 1614l29 149h94l-29 -149h-94zM496 1614l28 149h94l-28 -149h-94z" />
<glyph unicode="&#xa9;" horiz-adv-x="1738" d="M162 717q0 309 211 525t510 216q305 0 517 -216t212 -525q0 -311 -212 -526.5t-517 -215.5q-301 0 -511 215.5t-210 526.5zM254 717q0 -279 181 -467.5t448 -188.5q270 0 453.5 188.5t183.5 467.5q0 276 -183.5 465.5t-453.5 189.5q-266 0 -447.5 -189.5t-181.5 -465.5z M467 715q0 174 116.5 303t323.5 129q59 0 115.5 -18.5t94.5 -45t67.5 -53t44.5 -45.5l12 -18l-67 -60q-10 16 -32 42t-90.5 68t-142.5 42q-166 0 -258 -101.5t-92 -240.5t92 -240.5t258 -101.5q76 0 141.5 38t94.5 74l29 39l67 -59q-4 -8 -14 -19.5t-43 -43t-69 -55t-92 -43 t-116 -19.5q-207 0 -323.5 127t-116.5 301z" />
<glyph unicode="&#xaa;" horiz-adv-x="878" d="M164 539l14 75h518l-14 -75h-518zM250 950q0 250 432 250h43l2 10q6 29 6 54q0 115 -129 114q-43 0 -90 -15t-72 -30l-26 -14l-35 65q98 70 225 70q207 0 207 -184q0 -37 -10 -82l-78 -393h-80l21 104h-4q-8 -12 -26 -31.5t-75 -52.5t-117 -33q-74 0 -134 43t-60 125z M338 956q0 -43 30.5 -70.5t92.5 -27.5q84 0 157.5 86t88.5 162l4 20h-27q-346 0 -346 -170z" />
<glyph unicode="&#xab;" horiz-adv-x="997" d="M102 584l394 415h116l-407 -426l258 -415h-98zM420 584l418 415h116l-432 -426l258 -415h-98z" />
<glyph unicode="&#xac;" horiz-adv-x="1337" d="M203 702v82h934v-448h-86v366h-848z" />
<glyph unicode="&#xad;" horiz-adv-x="884" d="M33 539l14 82h565l-14 -82h-565z" />
<glyph unicode="&#xae;" horiz-adv-x="1738" d="M162 717q0 309 211 525t510 216q305 0 517 -216t212 -525q0 -311 -212 -526.5t-517 -215.5q-301 0 -511 215.5t-210 526.5zM254 717q0 -279 181 -467.5t448 -188.5q270 0 453.5 188.5t183.5 467.5q0 276 -183.5 465.5t-453.5 189.5q-266 0 -447.5 -189.5t-181.5 -465.5z M645 307v819h273q104 0 170.5 -65.5t66.5 -171.5q0 -86 -45 -144.5t-113 -74.5v-4q8 -10 27 -45l162 -314h-101l-174 342h-176v-342h-90zM735 727h172q72 0 114 43t42 119q0 74 -42 114.5t-114 40.5h-172v-317z" />
<glyph unicode="&#xaf;" horiz-adv-x="1042" d="M164 1610l14 82h490l-15 -82h-489z" />
<glyph unicode="&#xb0;" horiz-adv-x="761" d="M217 1149q0 119 96.5 212t216.5 93q102 0 167 -65.5t65 -163.5q0 -119 -97.5 -212t-213.5 -93q-104 0 -169 64.5t-65 164.5zM305 1149q0 -63 41 -105.5t109 -42.5q86 0 152.5 67t66.5 157q0 63 -41 105t-107 42q-86 0 -153.5 -67.5t-67.5 -155.5z" />
<glyph unicode="&#xb1;" horiz-adv-x="1443" d="M170 539v82h485v538h88v-538h484v-82h-484v-539h-88v539h-485zM211 -231h975v-82h-975v82z" />
<glyph unicode="&#xb2;" horiz-adv-x="770" d="M6 866q2 90 47 166t109.5 122t139.5 94l138 88q63 40 105.5 97.5t42.5 125.5q0 61 -42 102t-114 41q-51 0 -104.5 -25.5t-81.5 -50.5l-27 -27l-43 58q12 12 34.5 32.5t90.5 53.5t133 33q115 0 174.5 -59.5t59.5 -153.5q0 -92 -51.5 -164t-128 -121t-155.5 -93 t-145.5 -106.5t-87.5 -138.5h465l-14 -74h-545z" />
<glyph unicode="&#xb3;" horiz-adv-x="770" d="M25 979l61 49q4 -4 10 -11t27.5 -26.5t46.5 -34t63.5 -25.5t79.5 -11q92 0 167 71.5t75 171.5q0 74 -55.5 117t-130.5 43h-66l-14 49l272 260l62 51v5q-37 -6 -78 -7h-336l14 74h522l-10 -53l-323 -307q78 -6 150.5 -61.5t72.5 -170.5q0 -125 -97.5 -221t-226.5 -96 q-82 0 -153.5 33.5t-102.5 66.5z" />
<glyph unicode="&#xb4;" horiz-adv-x="1042" d="M256 1536l182 227h123l-207 -227h-98z" />
<glyph unicode="&#xb5;" horiz-adv-x="1226" d="M-6 -410l278 1434h86l-118 -614q-18 -90 -19 -160q0 -90 45 -140.5t158 -50.5q184 0 331.5 149.5t182.5 340.5l92 475h86l-198 -1024h-87l33 170l27 94h-4q-55 -104 -181 -196.5t-296 -92.5q-172 0 -240 109h-4q-10 -109 -19 -152l-67 -342h-86z" />
<glyph unicode="&#x3bc;" horiz-adv-x="1226" d="M-6 -410l278 1434h86l-118 -614q-18 -90 -19 -160q0 -90 45 -140.5t158 -50.5q184 0 331.5 149.5t182.5 340.5l92 475h86l-198 -1024h-87l33 170l27 94h-4q-55 -104 -181 -196.5t-296 -92.5q-172 0 -240 109h-4q-10 -109 -19 -152l-67 -342h-86z" />
<glyph unicode="&#xb6;" horiz-adv-x="1132" d="M170 899q0 215 175 375t392 160h451l-14 -82h-343l-282 -1454h-86l115 596q-166 0 -287 116.5t-121 288.5zM676 -102l256 1325h86l-256 -1325h-86z" />
<glyph unicode="&#xb7;" horiz-adv-x="567" d="M201 520l24 129h125l-24 -129h-125z" />
<glyph unicode="&#xb8;" horiz-adv-x="1042" d="M217 -408l16 76q33 -10 80 -10q49 0 88 20.5t39 67.5q0 66 -110 66l-25 -2l92 227l64 -10l-2 -17l-51 -133q49 -8 82.5 -42t33.5 -89q0 -80 -64.5 -122t-144.5 -42z" />
<glyph unicode="&#xb9;" horiz-adv-x="770" d="M63 866l15 74h196l127 659l13 46h-4q-10 -16 -56 -56l-104 -86l-45 60l229 192h78l-160 -815h191l-15 -74h-465z" />
<glyph unicode="&#xba;" horiz-adv-x="978" d="M174 539l14 75h603l-15 -75h-602zM246 1061q0 158 119.5 276.5t269.5 118.5q127 0 208 -79t81 -197q0 -160 -121 -278t-271 -118q-127 0 -206.5 78t-79.5 199zM326 1067q0 -92 57 -149.5t149 -57.5q119 0 215.5 93.5t96.5 224.5q0 90 -58.5 146t-150.5 56 q-121 0 -215 -92t-94 -221z" />
<glyph unicode="&#xbb;" horiz-adv-x="995" d="M31 158l432 426l-258 415h98l262 -426l-418 -415h-116zM373 158l407 426l-258 415h99l262 -426l-394 -415h-116z" />
<glyph unicode="&#xbc;" horiz-adv-x="1892" d="M117 545l14 73h197l127 660l12 45h-4q-10 -16 -55 -55l-105 -86l-45 59l229 193h78l-159 -816h190l-14 -73h-465zM397 0l967 1434h94l-964 -1434h-97zM1044 248l11 53l569 588h70l-111 -567h139l-14 -74h-139l-49 -248h-78l49 248h-447zM1178 322h327l58 301l32 133h-4 q-45 -55 -92 -103l-321 -327v-4z" />
<glyph unicode="&#xbd;" horiz-adv-x="1859" d="M117 545l14 73h197l127 660l12 45h-4q-10 -16 -55 -55l-105 -86l-45 59l229 193h78l-159 -816h190l-14 -73h-465zM397 0l967 1434h94l-964 -1434h-97zM1061 0q2 90 47 166t109.5 122t139.5 94l138 88q63 40 105.5 97.5t42.5 124.5q0 61 -42 102.5t-114 41.5 q-51 0 -104.5 -26t-79.5 -52l-29 -25l-43 58q12 12 34.5 32.5t90 53t133.5 32.5q115 0 174 -59t59 -154q0 -92 -51 -163.5t-128 -121t-155.5 -93.5t-145 -106t-87.5 -138h465l-14 -74h-545z" />
<glyph unicode="&#xbe;" horiz-adv-x="1929" d="M106 657l62 50q4 -4 10 -11.5t27.5 -27t46 -33.5t63.5 -25.5t80 -11.5q92 0 167 71.5t75 172.5q0 74 -55.5 116.5t-130.5 42.5h-66l-14 50l272 260l62 51v4q-37 -6 -78 -6h-336l14 74h522l-10 -54l-323 -307q78 -6 150.5 -61.5t72.5 -169.5q0 -125 -97.5 -221.5 t-226.5 -96.5q-51 0 -100 13.5t-81 33t-57.5 40t-35.5 32.5zM434 0l967 1434h94l-965 -1434h-96zM1081 248l11 53l569 588h70l-111 -567h139l-14 -74h-139l-50 -248h-77l49 248h-447zM1214 322h328l57 301l33 133h-4q-45 -55 -92 -103l-322 -327v-4z" />
<glyph unicode="&#xbf;" horiz-adv-x="880" d="M-37 -133q0 100 46 183t113.5 141.5t138.5 112.5t130.5 125t75.5 151l18 86h88l-18 -86q-20 -96 -79.5 -177t-128.5 -137l-135 -110q-67 -55 -111 -127t-44 -158q0 -94 68 -154.5t182 -60.5q68 0 137.5 21.5t104.5 43.5l37 21l35 -76q-16 -10 -45 -26.5t-112 -43 t-161 -26.5q-158 0 -249 82t-91 215zM510 899l27 125h120l-26 -125h-121z" />
<glyph unicode="&#xc0;" horiz-adv-x="1243" d="M-74 0l813 1434h92l261 -1434h-91l-88 496h-608l-280 -496h-99zM350 578h547l-102 581l-25 172h-4q-51 -111 -86 -172zM649 1763h107l92 -227h-82z" />
<glyph unicode="&#xc1;" horiz-adv-x="1243" d="M-74 0l813 1434h92l261 -1434h-91l-88 496h-608l-280 -496h-99zM350 578h547l-102 581l-25 172h-4q-51 -111 -86 -172zM756 1536l182 227h123l-207 -227h-98z" />
<glyph unicode="&#xc2;" horiz-adv-x="1243" d="M-74 0l813 1434h92l261 -1434h-91l-88 496h-608l-280 -496h-99zM350 578h547l-102 581l-25 172h-4q-51 -111 -86 -172zM584 1536l209 227h106l119 -227h-94l-82 164h-4l-148 -164h-106z" />
<glyph unicode="&#xc3;" horiz-adv-x="1243" d="M-74 0l813 1434h92l261 -1434h-91l-88 496h-608l-280 -496h-99zM350 578h547l-102 581l-25 172h-4q-51 -111 -86 -172zM524 1542q41 221 197 221q45 0 79 -23.5t51 -52t43 -52t54 -23.5q82 0 107 145h82q-23 -113 -70 -167t-129 -54q-45 0 -78 23.5t-50 52t-43 52.5 t-56 24q-43 0 -70 -47.5t-35 -98.5h-82z" />
<glyph unicode="&#xc4;" horiz-adv-x="1243" d="M-74 0l813 1434h92l261 -1434h-91l-88 496h-608l-280 -496h-99zM350 578h547l-102 581l-25 172h-4q-51 -111 -86 -172zM637 1614l29 149h94l-29 -149h-94zM918 1614l28 149h94l-28 -149h-94z" />
<glyph unicode="&#xc5;" horiz-adv-x="1243" d="M-74 0l813 1434h92l261 -1434h-91l-88 496h-608l-280 -496h-99zM350 578h547l-102 581l-25 172h-4q-51 -111 -86 -172zM690 1636q0 59 46 106.5t106 47.5q61 0 94 -33t33 -88q0 -59 -46 -106t-106 -47q-61 0 -94 31.5t-33 88.5zM762 1636q0 -49 55 -49q33 0 56.5 23.5 t23.5 58.5q0 23 -15.5 37t-39.5 14q-33 0 -56.5 -23.5t-23.5 -60.5z" />
<glyph unicode="&#xc6;" horiz-adv-x="1716" d="M-76 0l867 1434h925l-16 -82h-696l-115 -588h571l-16 -82h-572l-116 -600h735l-16 -82h-824l133 682h-348l-411 -682h-101zM485 764h316l114 588h-73z" />
<glyph unicode="&#xc7;" horiz-adv-x="1511" d="M137 586q0 233 122 436t318.5 319.5t413.5 116.5q96 0 182.5 -18.5t140.5 -45t94 -53t58 -45.5l17 -18l-62 -64l-17 18q-11 11 -50 38.5t-85 48t-121 38t-157 17.5q-195 0 -370 -104.5t-283.5 -287.5t-108.5 -396q0 -229 140.5 -378t371.5 -149q86 0 171 20.5t145.5 48.5 t110 56.5t73.5 48.5l23 21l51 -68l-28 -22q-17 -14 -76.5 -51t-122 -65t-157.5 -50.5t-190 -22.5h-2l-37 -98q49 -8 83 -42t34 -89q0 -80 -64.5 -122t-144.5 -42l-98 10l16 76q33 -10 80 -10q49 0 88 20.5t39 67.5q0 66 -110 66l-25 -2l68 170q-246 23 -388.5 189.5 t-142.5 416.5z" />
<glyph unicode="&#xc8;" horiz-adv-x="1165" d="M102 0l281 1434h784l-18 -82h-694l-115 -588h571l-16 -82h-569l-119 -600h733l-14 -82h-824zM662 1763h106l92 -227h-82z" />
<glyph unicode="&#xc9;" horiz-adv-x="1165" d="M102 0l281 1434h784l-18 -82h-694l-115 -588h571l-16 -82h-569l-119 -600h733l-14 -82h-824zM768 1536l182 227h123l-207 -227h-98z" />
<glyph unicode="&#xca;" horiz-adv-x="1165" d="M102 0l281 1434h784l-18 -82h-694l-115 -588h571l-16 -82h-569l-119 -600h733l-14 -82h-824zM596 1536l209 227h106l119 -227h-94l-82 164h-4l-148 -164h-106z" />
<glyph unicode="&#xcb;" horiz-adv-x="1165" d="M102 0l281 1434h784l-18 -82h-694l-115 -588h571l-16 -82h-569l-119 -600h733l-14 -82h-824zM649 1614l29 149h94l-29 -149h-94zM930 1614l28 149h95l-29 -149h-94z" />
<glyph unicode="&#xcc;" horiz-adv-x="532" d="M102 0l281 1434h88l-281 -1434h-88zM291 1763h106l92 -227h-81z" />
<glyph unicode="&#xcd;" horiz-adv-x="532" d="M102 0l281 1434h88l-281 -1434h-88zM397 1536l183 227h122l-206 -227h-99z" />
<glyph unicode="&#xce;" horiz-adv-x="532" d="M102 0l281 1434h88l-281 -1434h-88zM225 1536l209 227h107l118 -227h-94l-82 164h-4l-147 -164h-107z" />
<glyph unicode="&#xcf;" horiz-adv-x="532" d="M102 0l281 1434h88l-281 -1434h-88zM279 1614l28 149h94l-28 -149h-94zM559 1614l29 149h94l-29 -149h-94z" />
<glyph unicode="&#xd0;" horiz-adv-x="1544" d="M129 0l133 682h-123l17 82h123l131 670h428q287 0 449.5 -144.5t162.5 -408.5q0 -369 -240.5 -625t-611.5 -256h-469zM231 82h349q334 0 556 227.5t222 567.5q0 227 -141.5 351t-389.5 124h-346l-116 -588h376l-16 -82h-377z" />
<glyph unicode="&#xd1;" horiz-adv-x="1529" d="M102 0l281 1434h72l598 -1125q35 -66 82 -180h4q8 109 22 180l219 1125h88l-280 -1434h-72l-598 1124q-35 66 -82 181h-4q-8 -109 -22 -181l-220 -1124h-88zM662 1542q41 221 196 221q45 0 79 -23.5t51.5 -52t43 -52t53.5 -23.5q82 0 107 145h82q-23 -113 -70 -167 t-129 -54q-45 0 -77.5 23.5t-50 52t-43 52.5t-56.5 24q-43 0 -69.5 -47.5t-35.5 -98.5h-81z" />
<glyph unicode="&#xd2;" horiz-adv-x="1695" d="M131 590q0 229 125 431t325.5 319.5t415.5 117.5q270 0 440.5 -168t170.5 -430q0 -233 -126 -439t-326 -326t-415 -120q-270 0 -440 172.5t-170 442.5zM223 590q0 -233 144.5 -382t373.5 -149q190 0 369.5 107.5t292.5 294t113 397.5q0 227 -144.5 371.5t-374.5 144.5 q-195 0 -373 -104.5t-289.5 -287.5t-111.5 -392zM866 1763h107l92 -227h-82z" />
<glyph unicode="&#xd3;" horiz-adv-x="1695" d="M131 590q0 229 125 431t325.5 319.5t415.5 117.5q270 0 440.5 -168t170.5 -430q0 -233 -126 -439t-326 -326t-415 -120q-270 0 -440 172.5t-170 442.5zM223 590q0 -233 144.5 -382t373.5 -149q190 0 369.5 107.5t292.5 294t113 397.5q0 227 -144.5 371.5t-374.5 144.5 q-195 0 -373 -104.5t-289.5 -287.5t-111.5 -392zM973 1536l182 227h123l-207 -227h-98z" />
<glyph unicode="&#xd4;" horiz-adv-x="1695" d="M131 590q0 229 125 431t325.5 319.5t415.5 117.5q270 0 440.5 -168t170.5 -430q0 -233 -126 -439t-326 -326t-415 -120q-270 0 -440 172.5t-170 442.5zM223 590q0 -233 144.5 -382t373.5 -149q190 0 369.5 107.5t292.5 294t113 397.5q0 227 -144.5 371.5t-374.5 144.5 q-195 0 -373 -104.5t-289.5 -287.5t-111.5 -392zM801 1536l209 227h106l119 -227h-94l-82 164h-4l-148 -164h-106z" />
<glyph unicode="&#xd5;" horiz-adv-x="1695" d="M131 590q0 229 125 431t325.5 319.5t415.5 117.5q270 0 440.5 -168t170.5 -430q0 -233 -126 -439t-326 -326t-415 -120q-270 0 -440 172.5t-170 442.5zM223 590q0 -233 144.5 -382t373.5 -149q190 0 369.5 107.5t292.5 294t113 397.5q0 227 -144.5 371.5t-374.5 144.5 q-195 0 -373 -104.5t-289.5 -287.5t-111.5 -392zM741 1542q41 221 197 221q45 0 79 -23.5t51 -52t43 -52t54 -23.5q82 0 107 145h82q-23 -113 -70 -167t-129 -54q-45 0 -78 23.5t-50 52t-43 52.5t-56 24q-43 0 -70 -47.5t-35 -98.5h-82z" />
<glyph unicode="&#xd6;" horiz-adv-x="1695" d="M131 590q0 229 125 431t325.5 319.5t415.5 117.5q270 0 440.5 -168t170.5 -430q0 -233 -126 -439t-326 -326t-415 -120q-270 0 -440 172.5t-170 442.5zM223 590q0 -233 144.5 -382t373.5 -149q190 0 369.5 107.5t292.5 294t113 397.5q0 227 -144.5 371.5t-374.5 144.5 q-195 0 -373 -104.5t-289.5 -287.5t-111.5 -392zM854 1614l29 149h94l-29 -149h-94zM1135 1614l28 149h94l-28 -149h-94z" />
<glyph unicode="&#xd7;" horiz-adv-x="1413" d="M178 57l459 523l-459 522l58 57l456 -518l457 518l57 -57l-461 -522l461 -523l-57 -57l-457 518l-456 -518z" />
<glyph unicode="&#xd8;" horiz-adv-x="1703" d="M135 590q0 229 125 431t325.5 319.5t415.5 117.5q223 0 381 -119l131 144l66 -56l-131 -143q164 -170 164 -424q0 -233 -126 -439t-325.5 -326t-415.5 -120q-227 0 -383 121l-131 -143l-67 53l135 148q-164 170 -164 436zM227 590q0 -225 133 -371l963 1055 q-135 100 -322 100q-195 0 -372.5 -104.5t-289.5 -287.5t-112 -392zM422 162q135 -102 323 -103q190 0 369.5 107.5t292.5 294t113 397.5q0 215 -134 359z" />
<glyph unicode="&#xd9;" horiz-adv-x="1472" d="M168 383q0 55 12 117l182 934h89l-183 -936q-10 -47 -10 -107q0 -158 98.5 -245t274.5 -87q203 0 347 119t185 324l183 932h88l-189 -953q-45 -236 -212 -371t-402 -135q-215 0 -339 109t-124 299zM758 1763h106l92 -227h-82z" />
<glyph unicode="&#xda;" horiz-adv-x="1472" d="M168 383q0 55 12 117l182 934h89l-183 -936q-10 -47 -10 -107q0 -158 98.5 -245t274.5 -87q203 0 347 119t185 324l183 932h88l-189 -953q-45 -236 -212 -371t-402 -135q-215 0 -339 109t-124 299zM864 1536l183 227h122l-206 -227h-99z" />
<glyph unicode="&#xdb;" horiz-adv-x="1472" d="M168 383q0 55 12 117l182 934h89l-183 -936q-10 -47 -10 -107q0 -158 98.5 -245t274.5 -87q203 0 347 119t185 324l183 932h88l-189 -953q-45 -236 -212 -371t-402 -135q-215 0 -339 109t-124 299zM692 1536l209 227h107l118 -227h-94l-82 164h-4l-147 -164h-107z" />
<glyph unicode="&#xdc;" horiz-adv-x="1472" d="M168 383q0 55 12 117l182 934h89l-183 -936q-10 -47 -10 -107q0 -158 98.5 -245t274.5 -87q203 0 347 119t185 324l183 932h88l-189 -953q-45 -236 -212 -371t-402 -135q-215 0 -339 109t-124 299zM745 1614l29 149h94l-28 -149h-95zM1026 1614l29 149h94l-29 -149h-94z " />
<glyph unicode="&#xdd;" horiz-adv-x="1126" d="M184 1434h95l227 -566l59 -161h4l119 159l449 568h108l-645 -813l-123 -621h-88l123 623zM682 1536l182 227h123l-207 -227h-98z" />
<glyph unicode="&#xde;" horiz-adv-x="1222" d="M102 0l281 1434h88l-53 -267h362q143 0 230 -49q158 -88 157 -287q0 -162 -84 -285.5t-217 -178.5q-96 -39 -207 -39h-403l-66 -328h-88zM270 410h381q98 0 178 32q113 47 179.5 147.5t66.5 241.5q0 121 -77.5 187.5t-217.5 66.5h-379z" />
<glyph unicode="&#xdf;" horiz-adv-x="1155" d="M63 0l213 1104q33 164 160 259t275 95q143 0 222 -71.5t79 -178.5q0 -84 -52.5 -155.5t-116 -113.5t-115.5 -96.5t-52 -105.5q0 -45 53 -95t117.5 -92t118 -111.5t53.5 -147.5q0 -125 -106.5 -215t-245.5 -90q-90 0 -171 18.5t-118 36.5l-35 16l18 90q119 -78 304 -77 q98 0 180 57t82 164q0 51 -36 99t-86 85l-101 75q-50 38 -85.5 86t-35.5 99q0 68 53 132.5t115.5 105.5t116 103.5t53.5 127.5q0 70 -53.5 120t-155.5 50q-119 0 -221.5 -78.5t-129.5 -212.5l-210 -1083h-87z" />
<glyph unicode="&#xe0;" horiz-adv-x="1056" d="M29 231.5q0 116.5 65.5 199.5t177 122t221 55.5t232.5 16.5h80q14 80 14 131q0 209 -229 209q-80 0 -158 -25t-117 -49l-36 -25l-37 78q16 12 43.5 29.5t119 46.5t185.5 29q319 0 319 -281q0 -51 -12 -117l-127 -651h-86l27 133l24 94h-4q2 0 -13.5 -25.5t-48 -63.5 t-77.5 -74.5t-113.5 -62.5t-142.5 -26q-131 0 -219 70t-88 186.5zM119 240q0 -78 57 -131.5t168 -53.5q154 0 276.5 137.5t159.5 305.5l11 47h-66q-606 0 -606 -305zM479 1434h107l92 -228h-82z" />
<glyph unicode="&#xe1;" horiz-adv-x="1056" d="M29 231.5q0 116.5 65.5 199.5t177 122t221 55.5t232.5 16.5h80q14 80 14 131q0 209 -229 209q-80 0 -158 -25t-117 -49l-36 -25l-37 78q16 12 43.5 29.5t119 46.5t185.5 29q319 0 319 -281q0 -51 -12 -117l-127 -651h-86l27 133l24 94h-4q2 0 -13.5 -25.5t-48 -63.5 t-77.5 -74.5t-113.5 -62.5t-142.5 -26q-131 0 -219 70t-88 186.5zM119 240q0 -78 57 -131.5t168 -53.5q154 0 276.5 137.5t159.5 305.5l11 47h-66q-606 0 -606 -305zM586 1206l182 228h123l-207 -228h-98z" />
<glyph unicode="&#xe2;" horiz-adv-x="1056" d="M29 231.5q0 116.5 65.5 199.5t177 122t221 55.5t232.5 16.5h80q14 80 14 131q0 209 -229 209q-80 0 -158 -25t-117 -49l-36 -25l-37 78q16 12 43.5 29.5t119 46.5t185.5 29q319 0 319 -281q0 -51 -12 -117l-127 -651h-86l27 133l24 94h-4q2 0 -13.5 -25.5t-48 -63.5 t-77.5 -74.5t-113.5 -62.5t-142.5 -26q-131 0 -219 70t-88 186.5zM119 240q0 -78 57 -131.5t168 -53.5q154 0 276.5 137.5t159.5 305.5l11 47h-66q-606 0 -606 -305zM414 1206l209 228h106l119 -228h-94l-82 164h-4l-148 -164h-106z" />
<glyph unicode="&#xe3;" horiz-adv-x="1056" d="M29 231.5q0 116.5 65.5 199.5t177 122t221 55.5t232.5 16.5h80q14 80 14 131q0 209 -229 209q-80 0 -158 -25t-117 -49l-36 -25l-37 78q16 12 43.5 29.5t119 46.5t185.5 29q319 0 319 -281q0 -51 -12 -117l-127 -651h-86l27 133l24 94h-4q2 0 -13.5 -25.5t-48 -63.5 t-77.5 -74.5t-113.5 -62.5t-142.5 -26q-131 0 -219 70t-88 186.5zM119 240q0 -78 57 -131.5t168 -53.5q154 0 276.5 137.5t159.5 305.5l11 47h-66q-606 0 -606 -305zM354 1212q41 221 197 222q45 0 79 -24t51 -52.5t43 -52t54 -23.5q82 0 107 145h82q-23 -113 -70 -167 t-129 -54q-45 0 -78 23.5t-50 52.5t-43 52.5t-56 23.5q-43 0 -70 -47t-35 -99h-82z" />
<glyph unicode="&#xe4;" horiz-adv-x="1056" d="M29 231.5q0 116.5 65.5 199.5t177 122t221 55.5t232.5 16.5h80q14 80 14 131q0 209 -229 209q-80 0 -158 -25t-117 -49l-36 -25l-37 78q16 12 43.5 29.5t119 46.5t185.5 29q319 0 319 -281q0 -51 -12 -117l-127 -651h-86l27 133l24 94h-4q2 0 -13.5 -25.5t-48 -63.5 t-77.5 -74.5t-113.5 -62.5t-142.5 -26q-131 0 -219 70t-88 186.5zM119 240q0 -78 57 -131.5t168 -53.5q154 0 276.5 137.5t159.5 305.5l11 47h-66q-606 0 -606 -305zM467 1284l29 150h94l-29 -150h-94zM748 1284l28 150h94l-28 -150h-94z" />
<glyph unicode="&#xe5;" horiz-adv-x="1056" d="M29 231.5q0 116.5 65.5 199.5t177 122t221 55.5t232.5 16.5h80q14 80 14 131q0 209 -229 209q-80 0 -158 -25t-117 -49l-36 -25l-37 78q16 12 43.5 29.5t119 46.5t185.5 29q319 0 319 -281q0 -51 -12 -117l-127 -651h-86l27 133l24 94h-4q2 0 -13.5 -25.5t-48 -63.5 t-77.5 -74.5t-113.5 -62.5t-142.5 -26q-131 0 -219 70t-88 186.5zM119 240q0 -78 57 -131.5t168 -53.5q154 0 276.5 137.5t159.5 305.5l11 47h-66q-606 0 -606 -305zM520 1307q0 59 46 106t106 47q61 0 94 -32.5t33 -88.5q0 -59 -46 -106t-106 -47q-61 0 -94 32t-33 89z M592 1307q0 -49 55 -50q33 0 56.5 24t23.5 58q0 23 -15.5 37.5t-39.5 14.5q-33 0 -56.5 -23.5t-23.5 -60.5z" />
<glyph unicode="&#xe6;" horiz-adv-x="1800" d="M29 231q0 119 61.5 200t172 119t216 51t240.5 13h82l8 45q9 52 9 95q0 83 -34 134q-51 77 -204 77q-158 -2 -301 -99l-37 78q16 12 44.5 29.5t118 46.5t175.5 29q307 0 321 -222h4q164 221 436 222q176 0 267.5 -98.5t91.5 -266.5q0 -29 -6 -66.5t-13 -60.5l-6 -22h-803 q-14 -66 -14 -132q0 -164 92 -254t248 -90q88 0 174 33t127 64l43 32l33 -77q-18 -14 -51 -37t-131.5 -61t-190.5 -38q-168 0 -280.5 82t-141.5 224h-4q-12 -31 -41.5 -73t-83 -99.5t-138.5 -95.5t-183 -38q-131 0 -216 67.5t-85 188.5zM121 238q0 -78 57.5 -130.5 t165.5 -52.5q156 0 275.5 133.5t156.5 300.5l10 46h-141q-524 0 -524 -297zM895 614h707q6 43 6 82q0 137 -75 205t-192 68q-145 0 -266 -91.5t-180 -263.5z" />
<glyph unicode="&#xe7;" horiz-adv-x="1134" d="M82 403q0 279 192.5 462.5t432.5 183.5q219 0 344 -127l16 -19l-61 -63q-10 14 -33 34.5t-98.5 55.5t-163.5 35q-205 0 -372 -158t-167 -395q0 -160 103.5 -256.5t261.5 -96.5q201 0 356 134l14 14l33 -78q-6 -6 -18.5 -16.5t-52.5 -37t-84 -47t-110.5 -37t-133.5 -16.5 h-13l-36 -98q49 -8 82.5 -42t33.5 -89q0 -80 -64.5 -122t-144.5 -42l-98 10l16 76q33 -10 80 -10q49 0 88 20.5t39 67.5q0 66 -110 66l-25 -2l70 172q-170 23 -273.5 135t-103.5 286z" />
<glyph unicode="&#xe8;" horiz-adv-x="1134" d="M82 403q0 254 172 450t424 196q178 0 267 -99.5t89 -263.5q0 -33 -7 -73t-13 -64l-6 -23h-822q-12 -59 -12 -112q0 -156 94 -255.5t267 -99.5q176 0 331 121l11 8l32 -77q-18 -14 -51 -37t-131 -61t-192 -38q-201 0 -327 116.5t-126 311.5zM207 606h727q8 39 8 86 q0 137 -72.5 207t-191.5 70q-150 0 -280 -95.5t-191 -267.5zM567 1434h107l92 -228h-82z" />
<glyph unicode="&#xe9;" horiz-adv-x="1134" d="M82 403q0 254 172 450t424 196q178 0 267 -99.5t89 -263.5q0 -33 -7 -73t-13 -64l-6 -23h-822q-12 -59 -12 -112q0 -156 94 -255.5t267 -99.5q176 0 331 121l11 8l32 -77q-18 -14 -51 -37t-131 -61t-192 -38q-201 0 -327 116.5t-126 311.5zM207 606h727q8 39 8 86 q0 137 -72.5 207t-191.5 70q-150 0 -280 -95.5t-191 -267.5zM674 1206l182 228h123l-207 -228h-98z" />
<glyph unicode="&#xea;" horiz-adv-x="1134" d="M82 403q0 254 172 450t424 196q178 0 267 -99.5t89 -263.5q0 -33 -7 -73t-13 -64l-6 -23h-822q-12 -59 -12 -112q0 -156 94 -255.5t267 -99.5q176 0 331 121l11 8l32 -77q-18 -14 -51 -37t-131 -61t-192 -38q-201 0 -327 116.5t-126 311.5zM207 606h727q8 39 8 86 q0 137 -72.5 207t-191.5 70q-150 0 -280 -95.5t-191 -267.5zM502 1206l209 228h106l119 -228h-94l-82 164h-4l-148 -164h-106z" />
<glyph unicode="&#xeb;" horiz-adv-x="1134" d="M82 403q0 254 172 450t424 196q178 0 267 -99.5t89 -263.5q0 -33 -7 -73t-13 -64l-6 -23h-822q-12 -59 -12 -112q0 -156 94 -255.5t267 -99.5q176 0 331 121l11 8l32 -77q-18 -14 -51 -37t-131 -61t-192 -38q-201 0 -327 116.5t-126 311.5zM207 606h727q8 39 8 86 q0 137 -72.5 207t-191.5 70q-150 0 -280 -95.5t-191 -267.5zM555 1284l29 150h94l-29 -150h-94zM836 1284l28 150h94l-28 -150h-94z" />
<glyph unicode="&#xec;" horiz-adv-x="448" d="M63 0l199 1024h86l-198 -1024h-87zM184 1434h107l92 -228h-82z" />
<glyph unicode="&#xed;" horiz-adv-x="448" d="M63 0l199 1024h86l-198 -1024h-87zM291 1206l182 228h123l-207 -228h-98z" />
<glyph unicode="&#xee;" horiz-adv-x="448" d="M63 0l199 1024h86l-198 -1024h-87zM119 1206l209 228h106l119 -228h-94l-82 164h-4l-148 -164h-106z" />
<glyph unicode="&#xef;" horiz-adv-x="448" d="M63 0l199 1024h86l-198 -1024h-87zM172 1284l29 150h94l-29 -150h-94zM453 1284l28 150h94l-28 -150h-94z" />
<glyph unicode="&#xf0;" horiz-adv-x="1210" d="M78 375q0 223 159.5 403t421.5 180q205 0 310 -122l14 -19h4q-35 240 -209 381l-383 -164l-20 76l330 141q-121 72 -293 121l37 72q209 -57 346 -154l284 121l23 -76l-238 -100q217 -195 217 -510q0 -115 -35.5 -240t-105.5 -241.5t-191.5 -192.5t-275.5 -76 q-190 0 -292.5 115t-102.5 285zM168 379q0 -137 80 -229.5t225 -92.5q211 0 355.5 181.5t144.5 369.5q0 121 -85 195t-231 74q-199 0 -344 -147.5t-145 -350.5z" />
<glyph unicode="&#xf1;" horiz-adv-x="1202" d="M61 0l199 1024h86l-31 -170q-8 -47 -28 -94h4q51 100 182 194.5t299 94.5q141 0 213 -67t72 -191q0 -59 -17 -142l-125 -649h-86l119 618q18 96 19 156q0 94 -53.5 142.5t-143.5 48.5q-188 0 -339.5 -143.5t-190.5 -342.5l-93 -479h-86zM463 1212q41 221 196 222 q45 0 79 -24t51.5 -52.5t43 -52t54.5 -23.5q82 0 106 145h82q-23 -113 -70 -167t-128 -54q-45 0 -78 23.5t-50.5 52.5t-43 52.5t-56.5 23.5q-43 0 -69.5 -47t-34.5 -99h-82z" />
<glyph unicode="&#xf2;" horiz-adv-x="1275" d="M80 420q0 256 191.5 442.5t435.5 186.5q201 0 326.5 -123t125.5 -316q0 -258 -192.5 -446.5t-434.5 -188.5q-201 0 -326.5 125t-125.5 320zM170 422q0 -160 101.5 -261.5t260.5 -101.5q205 0 371 163t166 386q0 156 -101.5 256.5t-260.5 100.5q-209 0 -373 -161 t-164 -382zM596 1434h106l93 -228h-82z" />
<glyph unicode="&#xf3;" horiz-adv-x="1275" d="M80 420q0 256 191.5 442.5t435.5 186.5q201 0 326.5 -123t125.5 -316q0 -258 -192.5 -446.5t-434.5 -188.5q-201 0 -326.5 125t-125.5 320zM170 422q0 -160 101.5 -261.5t260.5 -101.5q205 0 371 163t166 386q0 156 -101.5 256.5t-260.5 100.5q-209 0 -373 -161 t-164 -382zM702 1206l183 228h123l-207 -228h-99z" />
<glyph unicode="&#xf4;" horiz-adv-x="1275" d="M80 420q0 256 191.5 442.5t435.5 186.5q201 0 326.5 -123t125.5 -316q0 -258 -192.5 -446.5t-434.5 -188.5q-201 0 -326.5 125t-125.5 320zM170 422q0 -160 101.5 -261.5t260.5 -101.5q205 0 371 163t166 386q0 156 -101.5 256.5t-260.5 100.5q-209 0 -373 -161 t-164 -382zM530 1206l209 228h107l119 -228h-95l-82 164h-4l-147 -164h-107z" />
<glyph unicode="&#xf5;" horiz-adv-x="1275" d="M80 420q0 256 191.5 442.5t435.5 186.5q201 0 326.5 -123t125.5 -316q0 -258 -192.5 -446.5t-434.5 -188.5q-201 0 -326.5 125t-125.5 320zM170 422q0 -160 101.5 -261.5t260.5 -101.5q205 0 371 163t166 386q0 156 -101.5 256.5t-260.5 100.5q-209 0 -373 -161 t-164 -382zM471 1212q41 221 197 222q45 0 78.5 -24t51 -52.5t43 -52t54.5 -23.5q82 0 106 145h82q-23 -113 -69.5 -167t-128.5 -54q-45 0 -78 23.5t-50.5 52.5t-43 52.5t-56.5 23.5q-43 0 -69.5 -47t-34.5 -99h-82z" />
<glyph unicode="&#xf6;" horiz-adv-x="1275" d="M80 420q0 256 191.5 442.5t435.5 186.5q201 0 326.5 -123t125.5 -316q0 -258 -192.5 -446.5t-434.5 -188.5q-201 0 -326.5 125t-125.5 320zM170 422q0 -160 101.5 -261.5t260.5 -101.5q205 0 371 163t166 386q0 156 -101.5 256.5t-260.5 100.5q-209 0 -373 -161 t-164 -382zM584 1284l28 150h95l-29 -150h-94zM864 1284l29 150h94l-29 -150h-94z" />
<glyph unicode="&#xf7;" horiz-adv-x="1359" d="M184 539v82h975v-82h-975zM612 156v120h117v-120h-117zM612 883v121h117v-121h-117z" />
<glyph unicode="&#xf8;" horiz-adv-x="1277" d="M80 420q0 256 191.5 442.5t435.5 186.5q162 0 280 -84l103 112l65 -57l-104 -115q109 -121 108 -295q0 -258 -192.5 -446.5t-434.5 -188.5q-152 0 -264 74l-100 -108l-66 57l99 106q-121 126 -121 316zM170 422q0 -152 90 -252l666 729q-94 66 -219 66q-209 0 -373 -161 t-164 -382zM328 115q90 -55 204 -56q205 0 371 163t166 386q0 135 -80 232z" />
<glyph unicode="&#xf9;" d="M106 233q0 59 17 142l125 649h86l-119 -614q-18 -90 -18 -160q0 -90 45 -140.5t157 -50.5q184 0 332 149.5t182 340.5l93 475h86l-199 -1024h-86l33 170l26 94h-4q-55 -104 -181 -196.5t-296 -92.5q-123 0 -201 62.5t-78 195.5zM547 1434h106l92 -228h-81z" />
<glyph unicode="&#xfa;" d="M106 233q0 59 17 142l125 649h86l-119 -614q-18 -90 -18 -160q0 -90 45 -140.5t157 -50.5q184 0 332 149.5t182 340.5l93 475h86l-199 -1024h-86l33 170l26 94h-4q-55 -104 -181 -196.5t-296 -92.5q-123 0 -201 62.5t-78 195.5zM653 1206l183 228h122l-206 -228h-99z" />
<glyph unicode="&#xfb;" d="M106 233q0 59 17 142l125 649h86l-119 -614q-18 -90 -18 -160q0 -90 45 -140.5t157 -50.5q184 0 332 149.5t182 340.5l93 475h86l-199 -1024h-86l33 170l26 94h-4q-55 -104 -181 -196.5t-296 -92.5q-123 0 -201 62.5t-78 195.5zM481 1206l209 228h107l118 -228h-94 l-82 164h-4l-147 -164h-107z" />
<glyph unicode="&#xfc;" d="M106 233q0 59 17 142l125 649h86l-119 -614q-18 -90 -18 -160q0 -90 45 -140.5t157 -50.5q184 0 332 149.5t182 340.5l93 475h86l-199 -1024h-86l33 170l26 94h-4q-55 -104 -181 -196.5t-296 -92.5q-123 0 -201 62.5t-78 195.5zM535 1284l28 150h94l-28 -150h-94z M815 1284l29 150h94l-29 -150h-94z" />
<glyph unicode="&#xfd;" horiz-adv-x="1003" d="M-182 -373l49 68q43 -43 119 -43q125 0 237 182l109 174l-230 1016h91l178 -831l18 -97h2l55 97l500 831h98l-776 -1270q-115 -184 -282 -184q-105 0 -168 57zM559 1206l182 228h123l-207 -228h-98z" />
<glyph unicode="&#xfe;" horiz-adv-x="1193" d="M-16 -410l356 1844h86l-100 -523l-25 -92h4q55 96 157.5 163t235.5 67q178 0 276.5 -107.5t98.5 -296.5q0 -287 -167 -478.5t-386 -191.5q-125 0 -214 59.5t-120 172.5h-4q-2 -47 -12 -101l-100 -516h-86zM236 383q0 -141 71.5 -232.5t208.5 -91.5q178 0 321.5 162 t143.5 420q0 152 -76 238t-207 86q-137 0 -245.5 -91.5t-162.5 -222.5t-54 -268z" />
<glyph unicode="&#xff;" horiz-adv-x="1003" d="M-182 -373l49 68q43 -43 119 -43q125 0 237 182l109 174l-230 1016h91l178 -831l18 -97h2l55 97l500 831h98l-776 -1270q-115 -184 -282 -184q-105 0 -168 57zM440 1284l29 150h94l-28 -150h-95zM721 1284l29 150h94l-29 -150h-94z" />
<glyph unicode="&#x152;" horiz-adv-x="1933" d="M133 578q0 354 256 615t602 261q39 0 132.5 -10t123.5 -10h690l-16 -82h-696l-115 -588h571l-16 -82h-571l-117 -600h735l-16 -82h-707q-27 0 -116 -10t-125 -10q-281 0 -448 166t-167 432zM225 567q0 -225 139.5 -364.5t378.5 -139.5l146 17l248 1274q-66 16 -142 16 q-317 0 -543.5 -236.5t-226.5 -566.5z" />
<glyph unicode="&#x153;" horiz-adv-x="2103" d="M80 420q0 256 191.5 442.5t435.5 186.5q162 0 276.5 -84t155.5 -224h4q80 139 212 223.5t292 84.5q178 0 267 -99.5t89 -263.5q0 -33 -6 -73t-15 -64l-6 -23h-821q-12 -68 -12 -112q0 -166 100 -260.5t260 -94.5q176 0 332 121l10 8l33 -77q-18 -14 -51 -37t-131.5 -61 t-192.5 -38q-166 0 -283.5 82t-154.5 228h-4q-86 -141 -229.5 -225.5t-299.5 -84.5q-201 0 -326.5 125t-125.5 320zM170 422q0 -160 101.5 -261.5t260.5 -101.5q205 0 371 163t166 386q0 156 -101.5 256.5t-260.5 100.5q-209 0 -373 -161t-164 -382zM1176 606h727q8 39 8 86 q0 137 -73 207t-191 70q-150 0 -280 -95.5t-191 -267.5z" />
<glyph unicode="&#x178;" horiz-adv-x="1126" d="M184 1434h95l227 -566l59 -161h4l119 159l449 568h108l-645 -813l-123 -621h-88l123 623zM563 1614l29 149h94l-29 -149h-94zM844 1614l28 149h95l-29 -149h-94z" />
<glyph unicode="&#x2c6;" horiz-adv-x="1040" d="M162 1536l209 227h106l119 -227h-94l-82 164h-4l-148 -164h-106z" />
<glyph unicode="&#x2dc;" horiz-adv-x="1042" d="M102 1542q41 221 197 221q45 0 79 -23.5t51 -52t43 -52t54 -23.5q82 0 107 145h82q-23 -113 -70 -167t-129 -54q-45 0 -77.5 23.5t-50 52t-43.5 52.5t-56 24q-43 0 -69.5 -47.5t-35.5 -98.5h-82z" />
<glyph unicode="&#x2013;" horiz-adv-x="1132" d="M66 539l14 82h975l-15 -82h-974z" />
<glyph unicode="&#x2014;" horiz-adv-x="1542" d="M66 539l14 82h1384l-14 -82h-1384z" />
<glyph unicode="&#x2018;" horiz-adv-x="419" d="M227 1141l158 309h84l-131 -309h-111z" />
<glyph unicode="&#x2019;" horiz-adv-x="411" d="M231 1141l131 309h111l-158 -309h-84z" />
<glyph unicode="&#x201a;" horiz-adv-x="491" d="M-20 -184l131 309h110l-158 -309h-83z" />
<glyph unicode="&#x201c;" horiz-adv-x="624" d="M227 1141l158 309h84l-131 -309h-111zM432 1141l158 309h84l-131 -309h-111z" />
<glyph unicode="&#x201d;" horiz-adv-x="616" d="M231 1141l131 309h111l-158 -309h-84zM436 1141l131 309h111l-158 -309h-84z" />
<glyph unicode="&#x201e;" horiz-adv-x="696" d="M-20 -184l131 309h110l-158 -309h-83zM184 -184l131 309h111l-158 -309h-84z" />
<glyph unicode="&#x2022;" horiz-adv-x="804" d="M127 596q0 113 79 191.5t191.5 78.5t191.5 -78.5t79 -191.5t-79 -191.5t-191.5 -78.5t-191.5 78.5t-79 191.5z" />
<glyph unicode="&#x2026;" horiz-adv-x="1361" d="M70 0l26 129h125l-26 -129h-125zM506 0l26 129h125l-26 -129h-125zM942 0l27 129h125l-27 -129h-125z" />
<glyph unicode="&#x2039;" horiz-adv-x="667" d="M102 584l394 415h116l-407 -426l258 -415h-98z" />
<glyph unicode="&#x203a;" horiz-adv-x="665" d="M43 158l408 426l-258 415h98l262 -426l-393 -415h-117z" />
<glyph unicode="&#x20ac;" horiz-adv-x="1202" d="M80 559l14 82h113q6 90 35 182h-111l14 82h125q102 244 317.5 398.5t463.5 154.5q49 0 97 -6t73 -12l22 -6l-37 -82q-70 20 -157 20q-213 0 -400.5 -130t-281.5 -337h671l-30 -82h-672q-29 -86 -39 -182h641l-29 -82h-614q4 -217 133 -357.5t365 -140.5q47 0 93 6.5 t68 14.5l25 6l8 -86q-86 -27 -196 -27q-262 0 -424 162t-164 422h-123z" />
<glyph unicode="&#x2122;" horiz-adv-x="2013" d="M188 1356v78h738v-78h-330v-815h-80v815h-328zM1010 541l71 893h72l258 -553l29 -82h4q10 41 29 82l258 553h71l72 -893h-78l-57 671l2 58h-4l-260 -561h-70l-260 561h-4l2 -58l-58 -671h-77z" />
<glyph unicode="&#xe000;" horiz-adv-x="1025" d="M0 1025h1025v-1025h-1025v1025z" />
<glyph unicode="&#xfb01;" horiz-adv-x="1071" d="M106 0l185 946h-129l14 78h129l10 51q23 115 73 195t111.5 113.5t108.5 47t92 13.5l64 -4l-19 -80q-16 4 -45 4q-39 0 -75.5 -10.5t-83.5 -38t-85 -92t-57 -158.5l-8 -41h582l-201 -1024h-86l184 946h-493l-184 -946h-87zM928 1284l30 150h103l-31 -150h-102z" />
<glyph unicode="&#xfb02;" horiz-adv-x="1107" d="M106 0l183 940h-129l14 78h129l10 51q18 96 57.5 168t81.5 109.5t93 61.5t86 30t69 6l64 -4l-19 -80q-16 4 -45 4q-39 0 -75.5 -10.5t-83.5 -38t-85 -92t-57 -156.5l-10 -49h281l-15 -78h-280l-182 -940h-87zM721 158q0 27 6 59l238 1217h86l-234 -1203q-6 -35 -6 -59 q0 -43 17.5 -66.5t36 -27.5t46.5 -4l27 2l-18 -80q-16 -4 -35 -4q-35 0 -68 9t-64.5 49t-31.5 108z" />
<glyph unicode="&#xfb03;" horiz-adv-x="1714" d="M106 0l185 946h-129l14 78h129l10 51q23 115 73 195t111.5 113.5t108.5 47t92 13.5l64 -4l-19 -80q-16 4 -45 4q-39 0 -75.5 -10.5t-83.5 -38t-85 -92t-57 -158.5l-8 -41h547l10 51q23 115 73 195t111.5 113.5t108.5 47t92 13.5l64 -4l-19 -80q-16 4 -45 4 q-39 0 -75.5 -10.5t-84 -38t-85 -92t-56.5 -158.5l-8 -41h590l-201 -1024h-86l184 946h-501l-185 -946h-86l185 946h-547l-184 -946h-87zM1569 1284l30 150h103l-31 -150h-102z" />
<glyph unicode="&#xfb04;" horiz-adv-x="1740" d="M106 0l185 946h-129l14 78h129l10 51q23 115 73 195t111.5 113.5t108.5 47t92 13.5l64 -4l-19 -80q-16 4 -45 4q-39 0 -75.5 -10.5t-83.5 -38t-85 -92t-57 -158.5l-8 -41h547l10 51q23 115 73 195t111.5 113.5t108.5 47t92 13.5l64 -4l-19 -80q-16 4 -45 4 q-39 0 -75.5 -10.5t-84 -38t-85 -92t-56.5 -158.5l-8 -41h279l-15 -78h-278l-185 -946h-86l185 946h-547l-184 -946h-87zM1354 158q0 27 6 59l237 1217h86l-233 -1203q-6 -35 -6 -59q0 -43 17.5 -66.5t36 -27.5t46.5 -4l27 2l-19 -80q-16 -4 -34 -4q-35 0 -68 9t-64.5 49 t-31.5 108z" />
</font>
</defs>
</svg>
