<?xml version="1.0" standalone="no"?>
<!DOCTYPE svg PUBLIC "-//W3C//DTD SVG 1.1//EN" "http://www.w3.org/Graphics/SVG/1.1/DTD/svg11.dtd" >
<svg xmlns="http://www.w3.org/2000/svg">
<metadata>
This is a custom SVG webfont generated by Font Squirrel.
Copyright   : Copyright c 2009 by Jos Buivenga All rights reserved
Designer    : Jos Buivenga
Foundry     : Jos Buivenga
Foundry URL : httpwwwexljbriscom
</metadata>
<defs>
<font id="MuseoSlab900" horiz-adv-x="1679" >
<font-face units-per-em="2048" ascent="1536" descent="-512" />
<missing-glyph horiz-adv-x="512" />
<glyph unicode=" "  horiz-adv-x="512" />
<glyph unicode="&#x09;" horiz-adv-x="512" />
<glyph unicode="&#xa0;" horiz-adv-x="512" />
<glyph unicode="!" horiz-adv-x="602" d="M117 1464h368l-32 -1011h-303zM139 0v307h324v-307h-324z" />
<glyph unicode="&#x22;" horiz-adv-x="849" d="M104 1004v491h250v-491h-250zM496 1004v491h249v-491h-249z" />
<glyph unicode="#" horiz-adv-x="1441" d="M66 369l40 245h207l35 195h-203l41 246h203l72 409h274l-71 -409h221l71 409h275l-72 -409h215l-41 -246h-215l-35 -195h211l-41 -245h-211l-63 -369h-274l63 369h-221l-64 -369h-274l63 369h-206zM588 614h221l35 195h-221z" />
<glyph unicode="$" horiz-adv-x="1181" d="M63 215l181 252q63 -49 110 -76q127 -76 240 -76q68 0 115 31t47 88q0 37 -37 67.5t-95.5 54.5t-129 49.5t-142 61t-130 81t-95.5 118t-37 164.5q0 158 108.5 270.5t282.5 145.5v223h224v-217q164 -18 280 -90q55 -35 94 -70l-143 -272q-45 37 -100 65q-123 63 -222 64 q-74 0 -119.5 -27.5t-45.5 -85.5q0 -41 36.5 -72.5t95 -55t129 -48t142.5 -58.5t130 -77t95 -112.5t37 -157.5q0 -162 -109.5 -287t-299.5 -154v-217h-224v217q-180 29 -309 115q-60 37 -109 86z" />
<glyph unicode="%" horiz-adv-x="1748" d="M68 1135q0 143 108.5 248.5t262 105.5t262 -105.5t108.5 -248.5q0 -147 -108.5 -250t-262.5 -103q-156 0 -263 103t-107 250zM150 0l1130 1464h311l-1130 -1464h-311zM326 1137q0 -47 32.5 -78t79.5 -31t80 31t33 78q0 43 -33 74.5t-80 31.5t-79.5 -31.5t-32.5 -74.5z M942 328q0 143 108.5 248.5t262 105.5t262 -105.5t108.5 -248.5q0 -147 -108.5 -250t-261.5 -103q-156 0 -263.5 103t-107.5 250zM1200 330q0 -47 33 -78t80 -31t79.5 31t32.5 78q0 43 -32.5 74.5t-79.5 31.5t-80 -31.5t-33 -74.5z" />
<glyph unicode="&#x26;" horiz-adv-x="1429" d="M70 420q0 121 68.5 216t185.5 138v4q-57 31 -97 70q-96 96 -96 246q0 199 145.5 297t352.5 98q74 0 151 -12l66 -13l-82 -280l-25 4q-29 4 -55 4q-82 0 -136 -39t-54 -111q0 -66 38.5 -109.5t110.5 -43.5h219v190h352v-190h183v-287h-183v-151q0 -203 -155.5 -339.5 t-419.5 -136.5q-256 0 -412.5 128.5t-156.5 316.5zM436 453q0 -74 56.5 -117t150.5 -43q100 0 159.5 49t59.5 129v131h-241q-78 0 -131.5 -36.5t-53.5 -112.5z" />
<glyph unicode="'" horiz-adv-x="464" d="M104 1004v491h256v-491h-256z" />
<glyph unicode="(" horiz-adv-x="718" d="M109 711q0 434 253 825h291q-231 -385 -231 -825q0 -471 231 -906h-291q-253 406 -253 906z" />
<glyph unicode=")" horiz-adv-x="718" d="M66 -195q231 434 231 906q0 440 -231 825h290q254 -391 254 -825q0 -500 -254 -906h-290z" />
<glyph unicode="*" horiz-adv-x="1003" d="M66 1034l94 293l209 -92l-23 229h311l-24 -229l211 94l96 -293l-227 -47v-4l155 -170l-250 -182l-114 198h-4l-113 -198l-250 180l154 170v4z" />
<glyph unicode="+" horiz-adv-x="1290" d="M86 455v266h420v457h278v-457h420v-266h-420v-455h-278v455h-420z" />
<glyph unicode="," horiz-adv-x="595" d="M14 -227l154 567h338l-232 -567h-260z" />
<glyph unicode="-" horiz-adv-x="925" d="M141 434v307h643v-307h-643z" />
<glyph unicode="." horiz-adv-x="581" d="M123 0v336h336v-336h-336z" />
<glyph unicode="/" horiz-adv-x="950" d="M66 -86l524 1622h295l-525 -1622h-294z" />
<glyph unicode="0" horiz-adv-x="1286" d="M92 735q0 164 29 296t90 237.5t171 163t261.5 57.5t261 -57.5t171 -163t90 -237.5t28.5 -296t-28.5 -297t-90 -239.5t-171 -165t-261 -58.5t-261.5 58.5t-171 165t-90 239.5t-29 297zM461 735q0 -442 182 -442t182 442q0 436 -182 436t-182 -436z" />
<glyph unicode="1" horiz-adv-x="1110" d="M57 1094l396 370h309v-1177h313v-287h-975v287h312v631q0 16 1 41.5t1 35.5v35h-4q-8 -16 -15 -24q-31 -43 -43 -54l-88 -80z" />
<glyph unicode="2" horiz-adv-x="1245" d="M76 158q0 150 67.5 270.5t165 196t193.5 138t163.5 127t67.5 130.5q0 82 -46 116.5t-112 34.5q-90 0 -169 -84q-37 -39 -66 -83l-248 170q41 84 115 157q162 158 401 158q201 0 352.5 -116t151.5 -333q0 -119 -65.5 -219t-158.5 -167.5t-187.5 -125t-161 -119 t-68.5 -122.5h369v174h307v-461h-1055q-16 92 -16 158z" />
<glyph unicode="3" horiz-adv-x="1210" d="M70 168l166 256q41 -39 90 -66q111 -66 217 -65q96 0 152.5 47t56.5 119q0 76 -59.5 121t-172.5 45q-23 0 -71 -4l-76 163l256 326q18 25 47 49l22 21v4q-20 0 -30 -2q-37 -4 -62 -4h-190v-154h-307v440h966v-254l-274 -336q150 -35 235.5 -141t85.5 -258 q0 -205 -143 -352.5t-410 -147.5q-209 0 -372 97q-74 43 -127 96z" />
<glyph unicode="4" horiz-adv-x="1294" d="M41 354v217l565 893h438v-833h175v-277h-175v-354h-354v354h-649zM397 631h293v354q0 57 8 98l7 54h-9l-16 -45q-20 -55 -47 -91l-236 -366v-4z" />
<glyph unicode="5" horiz-adv-x="1210" d="M63 162l158 262q43 -39 92 -66q115 -66 224 -65q96 0 160.5 49t64.5 137q0 80 -61.5 130t-180.5 50q-84 0 -155 -26q-37 -14 -56 -27l-190 72l59 786h858v-440h-307v154h-240l-12 -191q0 -10 -4 -39l-4 -18h4l33 8q35 6 98 6q246 0 386 -131t140 -332 q0 -217 -157.5 -361.5t-411.5 -144.5q-201 0 -368 95q-75 41 -130 92z" />
<glyph unicode="6" horiz-adv-x="1263" d="M84 659q0 164 46 312.5t133 264.5t225.5 184.5t310.5 68.5q123 0 227 -31q55 -16 86 -33l-94 -297q-20 12 -62 23q-78 20 -143 20q-236 0 -319 -251h4q78 51 221 51q215 0 349 -150.5t134 -345.5q0 -199 -147.5 -349.5t-378.5 -150.5q-248 0 -420 178t-172 506zM453 553 q0 -96 66.5 -178t156.5 -82q70 0 114 51t44 133q0 86 -59.5 145.5t-188.5 59.5q-133 0 -133 -129z" />
<glyph unicode="7" horiz-adv-x="1163" d="M70 1024v440h1063v-250l-615 -1214h-373l547 1090q23 41 41 67q2 2 7 10.5t10 12.5v4q-20 0 -31 -2q-37 -4 -76 -4h-266v-154h-307z" />
<glyph unicode="8" horiz-adv-x="1257" d="M80 418q0 201 211 364q-154 119 -154 289t126 294t362 124q219 0 363.5 -110.5t144.5 -297.5q0 -170 -152 -346q190 -121 190 -317q0 -178 -144 -310.5t-400 -132.5q-254 0 -400.5 132.5t-146.5 310.5zM438 459q0 -78 52.5 -127t140.5 -49q76 0 125 39.5t49 107.5 q0 59 -52.5 96t-191.5 97l-39 16q-84 -84 -84 -180zM487 1063q0 -70 57.5 -111t188.5 -94q53 84 53 176q0 147 -157 148q-142 0 -142 -119z" />
<glyph unicode="9" horiz-adv-x="1265" d="M63 989q0 199 147.5 349.5t379.5 150.5q248 0 420 -178t172 -506q0 -217 -77 -401.5t-244 -306.5t-396 -122q-119 0 -229 33l-89 31l95 297q18 -8 63 -21q86 -23 146 -22q242 0 323 258h-4q-68 -51 -223 -51q-213 0 -348.5 149.5t-135.5 339.5zM432 989 q0 -84 57.5 -142.5t180.5 -58.5q143 0 143 136q0 100 -70.5 173.5t-154.5 73.5q-66 0 -111 -53t-45 -129z" />
<glyph unicode=":" horiz-adv-x="622" d="M143 0v336h336v-336h-336zM143 719v336h336v-336h-336z" />
<glyph unicode=";" horiz-adv-x="628" d="M29 -227l133 567h340l-211 -567h-262zM172 719v336h324v-336h-324z" />
<glyph unicode="&#x3c;" horiz-adv-x="1290" d="M109 479v219l1032 457v-297l-676 -268v-4l676 -267v-296z" />
<glyph unicode="=" horiz-adv-x="1290" d="M127 219v266h1036v-266h-1036zM127 690v266h1036v-266h-1036z" />
<glyph unicode="&#x3e;" horiz-adv-x="1290" d="M150 23v296l675 267v4l-675 268v297l1032 -457v-219z" />
<glyph unicode="?" horiz-adv-x="1036" d="M53 1325q45 49 111 86q143 84 317 84q188 0 332.5 -107.5t144.5 -293.5q0 -92 -35.5 -169t-88 -125t-103.5 -90t-87 -88.5t-36 -95.5v-73h-340v102q0 76 33 140.5t80 106.5t95 80t81 81t33 90q0 53 -42 87t-104 34q-59 0 -133 -44q-37 -25 -61 -45zM276 0v307h324v-307 h-324z" />
<glyph unicode="@" horiz-adv-x="1708" d="M59 492q0 330 231.5 549t602.5 219q291 0 436.5 -138.5t145.5 -353.5v-406h151v-243h-579q-217 0 -341 110.5t-124 262.5q0 147 121.5 253.5t343.5 106.5h100q0 61 -85 96t-185 35q-203 0 -337 -150.5t-134 -351.5q0 -199 138 -340t378 -141v-266q-393 0 -628 215 t-235 543zM932 494q0 -53 36 -92.5t99 -39.5h80v275h-76q-70 0 -104.5 -38.5t-34.5 -104.5z" />
<glyph unicode="A" horiz-adv-x="1499" d="M20 0v266h121l400 1198h417l400 -1198h121v-266h-613v266h127l-55 195h-377l-55 -195h127v-266h-613zM639 739h219l-76 271q-8 29 -15 67.5t-7 42.5l-6 43h-9q0 -14 -4 -43q-2 -8 -5 -27.5t-8 -41t-11 -41.5z" />
<glyph unicode="B" horiz-adv-x="1447" d="M100 0v266h164v932h-164v266h684q174 0 269 -30q119 -43 187.5 -133.5t68.5 -217.5q0 -100 -45 -183t-129 -130v-4q121 -37 177 -128t56 -208q0 -156 -94 -265.5t-232 -144.5q-88 -20 -219 -20h-723zM631 897h180q66 0 97.5 39t31.5 102q0 94 -68 127q-33 12 -90 13h-151 v-281zM631 287h211q39 0 67 12q41 18 64.5 62.5t23.5 97.5q0 70 -38.5 110.5t-114.5 40.5h-213v-323z" />
<glyph unicode="C" horiz-adv-x="1531" d="M70 735.5q0 323.5 221 538.5t545 215q80 0 170 -13.5t190 -43t165.5 -91t65.5 -145.5v-231h-327v112q0 55 -77 80t-171 25q-182 0 -292.5 -114t-110.5 -312q0 -221 117.5 -347t305.5 -126q80 0 162 23.5t82 80.5v113h328v-236q0 -78 -63.5 -138t-161 -91t-192.5 -45.5 t-181 -14.5q-334 0 -555 218.5t-221 542z" />
<glyph unicode="D" horiz-adv-x="1613" d="M100 266h164v932h-164v266h645q195 0 302 -30q223 -63 357 -246.5t134 -454.5q0 -250 -117.5 -430t-322.5 -254q-135 -49 -350 -49h-648v266zM631 287h106q135 0 224 41q94 47 146 152.5t52 250.5q0 322 -225 416q-74 31 -197 31h-106v-891z" />
<glyph unicode="E" horiz-adv-x="1349" d="M100 0v266h164v932h-164v266h1129v-432h-307v146h-291v-297h428v-287h-428v-307h315v145h307v-432h-1153z" />
<glyph unicode="F" horiz-adv-x="1243" d="M100 0v266h164v932h-164v266h1092v-432h-307v125h-254v-317h430v-287h-430v-287h184v-266h-715z" />
<glyph unicode="G" horiz-adv-x="1572" d="M70 741q0 330 220 539t564 209q139 0 271 -32t225.5 -99.5t93.5 -155.5v-237h-328v106q0 53 -68.5 82t-173.5 29q-203 0 -314 -109.5t-111 -314.5q0 -211 117.5 -343t328.5 -132q94 0 174 25.5t80 80.5v100h-236v267h564v-488q0 -78 -67 -137t-168 -92t-202.5 -48.5 t-189.5 -15.5q-338 0 -559 217t-221 549z" />
<glyph unicode="H" horiz-adv-x="1785" d="M100 0v266h164v932h-164v266h695v-266h-164v-328h524v328h-164v266h695v-266h-164v-932h164v-266h-695v266h164v318h-524v-318h164v-266h-695z" />
<glyph unicode="I" horiz-adv-x="894" d="M100 0v266h164v932h-164v266h695v-266h-164v-932h164v-266h-695z" />
<glyph unicode="J" horiz-adv-x="1191" d="M29 430v127h348v-98q0 -78 24.5 -122t100.5 -44q115 0 114 166v739h-184v266h694v-266h-143v-747q0 -227 -143.5 -351.5t-339.5 -124.5q-195 0 -333 116t-138 339z" />
<glyph unicode="K" horiz-adv-x="1538" d="M100 0v266h164v932h-164v266h637v-266h-106v-309h123l215 309h-111v266h602v-266h-123l-311 -420v-4q18 -12 37 -26q49 -49 76 -105l166 -330q25 -47 90 -47h63v-266h-250q-88 0 -132 24.5t-75 84.5l-219 446q-23 47 -102 47h-49v-336h153v-266h-684z" />
<glyph unicode="L" horiz-adv-x="1298" d="M102 0v266h164v912h-164v286h695v-286h-164v-891h315v215h307v-502h-1153z" />
<glyph unicode="M" horiz-adv-x="2019" d="M72 0v266h159l78 932h-164v266h576l246 -725q23 -66 32 -108q4 -14 9 -43h4q4 29 8 43q0 4 33 108l245 725h576v-266h-164l78 -932h160v-266h-664v266h146l-35 527q-2 35 2 104l6 59h-8q-2 -18 -11 -55q-14 -68 -28 -100l-193 -535h-307l-192 535q-20 63 -28.5 100 t-10.5 55h-9l7 -59q4 -70 2 -104l-35 -527h145v-266h-663z" />
<glyph unicode="N" horiz-adv-x="1759" d="M100 0v266h164v932h-164v266h535l459 -776q25 -41 43 -96l18 -53h8l-6 57q-6 33 -6 106v496h-172v266h702v-266h-163v-1198h-369l-461 772q-29 55 -43 96l-18 54h-9l7 -58q6 -33 6 -106v-492h172v-266h-703z" />
<glyph unicode="O" d="M70 741q0 317 218 532.5t552 215.5t552 -215t218 -533q0 -326 -218 -546t-552 -220t-552 220t-218 546zM449 741q0 -190 114.5 -319t276 -129t276.5 129t115 319q0 182 -115 306t-276.5 124t-276 -124t-114.5 -306z" />
<glyph unicode="P" horiz-adv-x="1394" d="M100 266h164v932h-164v266h729q168 0 246 -32q131 -49 207 -173t76 -288q0 -162 -80 -292t-209 -175q-92 -31 -229 -31h-209v-207h164v-266h-695v266zM631 760h155q76 0 129 31q78 49 78 180q0 125 -71 174q-51 33 -129 33h-162v-418z" />
<glyph unicode="Q" horiz-adv-x="1693" d="M70 737q0 322 218 537t558 215q332 0 551 -204t219 -523q0 -250 -156 -453l158 -127l-203 -227l-153 145q-174 -125 -418 -125q-336 0 -555 219t-219 543zM449 737.5q0 -188.5 115.5 -316.5t281.5 -128q102 0 162 39l-193 178l197 223l194 -186q41 98 41 198 q0 178 -116.5 302t-284.5 124t-282.5 -122.5t-114.5 -311z" />
<glyph unicode="R" horiz-adv-x="1515" d="M100 0v266h164v932h-164v266h662q195 0 293 -28q137 -43 215 -148.5t78 -263.5q0 -272 -238 -401v-5q29 -16 33 -20q39 -31 57 -68l113 -217q25 -47 94 -47h51v-266h-241q-86 0 -131.5 23.5t-75.5 85.5l-179 342q-18 37 -44.5 50t-81.5 13h-74v-248h153v-266h-684z M631 801h166q186 0 186 190q0 123 -80 162q-49 25 -141 25h-131v-377z" />
<glyph unicode="S" horiz-adv-x="1265" d="M82 332v188h328v-108q0 -55 60 -87t150.5 -32t143.5 30.5t53 88.5q0 27 -14.5 50t-31.5 39.5t-55 35t-63 27.5l-75 28q-51 18 -76 29q-88 35 -146.5 65.5t-119 81.5t-90 124t-29.5 169q0 117 45 203t121.5 134t166 69.5t193.5 21.5q129 0 239.5 -31t184.5 -95.5 t74 -154.5v-217h-328v92q0 41 -49 64.5t-121 23.5q-158 0 -158 -100q0 -45 39 -82t73 -52t122 -48q14 -6 20 -8q102 -35 167 -65t136.5 -81t107.5 -127t36 -174q0 -121 -48 -212t-131 -143t-180.5 -78t-205.5 -26q-219 0 -379 94.5t-160 262.5z" />
<glyph unicode="T" horiz-adv-x="1423" d="M47 971v493h1329v-493h-307v207h-174v-912h164v-266h-694v266h163v912h-174v-207h-307z" />
<glyph unicode="U" d="M55 1198v266h695v-266h-164v-639q0 -98 37 -162q61 -104 219 -104q145 0 213 102q39 63 39 164v639h-164v266h694v-266h-164v-639q0 -227 -121 -381q-168 -203 -499 -203q-158 0 -288 52.5t-210 144.5q-123 137 -123 387v639h-164z" />
<glyph unicode="V" horiz-adv-x="1499" d="M20 1198v266h648v-266h-144l193 -643q2 -6 22 -106l6 -54h9l6 54q18 94 22 106l193 643h-144v266h648v-266h-123l-418 -1198h-377l-418 1198h-123z" />
<glyph unicode="W" horiz-adv-x="2113" d="M25 1198v266h649v-266h-170l135 -649q10 -43 14 -105l4 -49h9l6 49q2 10 8 47t10 58l225 915h283l225 -915q6 -20 11.5 -58t7.5 -47l6 -49h8l4 49q2 37 15 105l135 649h-170v266h649v-266h-123l-291 -1198h-403l-187 750q-4 20 -10 58l-8 50l-6 53h-8l-6 -53 q-2 -10 -7.5 -48t-11.5 -60l-186 -750h-404l-291 1198h-122z" />
<glyph unicode="X" horiz-adv-x="1484" d="M70 266h116l361 482l-344 450h-123v266h622v-266h-127l140 -184q27 -33 35 -47q8 -8 12 -21h4l4 8q4 6 15.5 24.5t25.5 35.5l135 184h-123v266h590v-266h-117l-358 -475l352 -457h119v-266h-623v266h132l-148 193q-25 33 -35 49q-8 8 -12 20h-4q-2 0 -7 -8l-17 -26 l-21 -35l-137 -193h127v-266h-594v266z" />
<glyph unicode="Y" horiz-adv-x="1374" d="M20 1198v266h607v-266h-123l149 -270q8 -12 25 -51q2 -4 8 -21h4l8 21l25 51l149 270h-122v266h604v-266h-125l-359 -598v-334h164v-266h-694v266h164v334l-359 598h-125z" />
<glyph unicode="Z" horiz-adv-x="1351" d="M100 0v225l625 885q14 23 43 51l23 19v4q-18 0 -29 -2q-33 -4 -60 -4h-286v-207h-307v493h1124v-221l-627 -889q-10 -16 -43 -49l-22 -20v-4l28 4q16 2 60 2h321v215h307v-502h-1157z" />
<glyph unicode="[" horiz-adv-x="737" d="M168 -195v1731h504v-246h-209v-1239h209v-246h-504z" />
<glyph unicode="\" horiz-adv-x="950" d="M66 1536h294l525 -1622h-295z" />
<glyph unicode="]" horiz-adv-x="737" d="M66 51h208v1239h-208v246h503v-1731h-503v246z" />
<glyph unicode="^" horiz-adv-x="1290" d="M119 494l416 970h219l415 -970h-297l-229 614l-227 -614h-297z" />
<glyph unicode="_" horiz-adv-x="1200" d="M-10 0h1220v-266h-1220v266z" />
<glyph unicode="`" horiz-adv-x="991" d="M190 1866h363l238 -307h-291z" />
<glyph unicode="a" horiz-adv-x="1193" d="M47 301q0 109 62.5 184.5t161 109.5t180 47t159.5 13h64v31q0 117 -150 117q-88 0 -198 -49q-39 -16 -93 -52l-122 240q51 37 122 70q156 68 324 67q231 0 351 -110.5t120 -319.5v-348q0 -45 45 -45h78v-256h-305q-72 0 -106.5 33t-34.5 78v6q0 18 2 22t2 11h-4 q-27 -47 -72 -87q-100 -88 -240 -88q-145 0 -245.5 86t-100.5 240zM403 326q0 -41 26 -68t69 -27q66 0 123 65.5t57 135.5v25h-33q-98 0 -170 -32.5t-72 -98.5z" />
<glyph unicode="b" horiz-adv-x="1314" d="M2 1208v256h498v-407q0 -49 -2 -66q-2 -10 -2 -24h4q27 31 71 57q84 55 213 55q215 0 345.5 -152.5t130.5 -400t-139.5 -399.5t-352.5 -152q-129 0 -223 66q-31 23 -66 63h-4q2 -6 2 -22v-47v-35h-332v1208h-143zM489 520q0 -102 54.5 -177t152.5 -75q88 0 147.5 66.5 t59.5 185.5q0 117 -57.5 188.5t-149.5 71.5q-86 0 -146.5 -66.5t-60.5 -193.5z" />
<glyph unicode="c" horiz-adv-x="1161" d="M51 524q0 233 163 394t415 161q115 0 215 -25.5t175 -88t75 -154.5v-168h-301v64q0 37 -43 57t-107 20q-119 0 -177 -66.5t-58 -180.5q0 -133 74.5 -201t191.5 -68q170 0 317 117l119 -248q-178 -162 -459 -162q-246 0 -423 150.5t-177 398.5z" />
<glyph unicode="d" horiz-adv-x="1357" d="M55 526q0 250 134.5 401.5t353.5 151.5q129 0 211 -51q37 -23 59 -53h4v18q0 6 -1 22.5t-1 26.5v166h-143v256h497v-1163q0 -45 45 -45h78v-256h-305q-72 0 -106.5 33t-34.5 78v6q0 18 2 22t2 11h-4q-25 -51 -70 -87q-104 -88 -256 -88q-209 0 -337 152.5t-128 398.5z M412 526q0 -117 56 -187.5t148 -70.5q86 0 147.5 64.5t61.5 185.5q0 113 -52 187.5t-150 74.5q-90 0 -150.5 -67.5t-60.5 -186.5z" />
<glyph unicode="e" horiz-adv-x="1150" d="M51 528q0 238 149.5 394.5t399.5 156.5q231 0 361.5 -142t130.5 -368q0 -20 -5 -65l-4 -41h-669q18 -98 85.5 -146.5t160 -48.5t206.5 51q51 23 90 50l129 -246q-51 -39 -120 -74q-152 -74 -334 -74q-268 0 -424 164t-156 389zM422 657h303q0 66 -37 111t-96 45 q-135 0 -170 -156z" />
<glyph unicode="f" horiz-adv-x="845" d="M76 799v256h143v43q0 98 34 173t83 114.5t116.5 64.5t122 32t111.5 7q45 0 90 -4l35 -4v-279l-20 4q-14 2 -66 2q-152 0 -152 -102v-51h218v-256h-218v-543h156v-256h-643v256h133v543h-143z" />
<glyph unicode="g" horiz-adv-x="1339" d="M57 561q0 217 123 367.5t350 150.5q92 0 179.5 -34.5t128.5 -102.5h4v10q0 2 -1 8.5t-1 8.5q0 35 31.5 60.5t86.5 25.5h320v-256h-80q-45 0 -45 -39v-664q0 -139 -51 -243.5t-139.5 -165t-189.5 -89t-216 -28.5q-221 0 -399 94l100 258q31 -16 86 -35q111 -33 211 -32 q106 0 175 49t69 164v34q0 2 1 11.5t1 13.5v14h-4q-96 -111 -265 -110q-225 0 -350 155.5t-125 374.5zM414 573q0 -106 52 -176.5t150 -70.5q82 0 136.5 52t54.5 179q0 227 -205 227q-90 0 -139 -57.5t-49 -153.5z" />
<glyph unicode="h" horiz-adv-x="1421" d="M47 1208v256h498v-463q0 -49 -2 -65q-2 -10 -2 -25h4q45 78 131 123t190 45q174 0 276.5 -93t102.5 -302v-428h133v-256h-487v618q0 139 -117 140q-111 0 -170 -84t-59 -207v-211h133v-256h-621v256h133v952h-143z" />
<glyph unicode="i" horiz-adv-x="763" d="M76 799v256h497v-799h134v-256h-621v256h133v543h-143zM223 1188v276h346v-276h-346z" />
<glyph unicode="j" horiz-adv-x="696" d="M-39 -143q2 -2 12 -2h33q45 0 83 9t73 44t35 92v799h-146v256h500v-1071q0 -100 -37 -178t-90 -120t-125 -69t-129 -35t-115 -8q-53 0 -69 2l-25 4v277zM201 1188v276h346v-276h-346z" />
<glyph unicode="k" horiz-adv-x="1298" d="M47 1208v256h498v-800h121l110 135h-100v256h549v-256h-129l-183 -221v-5l27 -20q39 -33 57 -74l105 -188q18 -35 78 -35h51v-256h-258q-59 0 -91 15.5t-61 64.5l-162 299q-18 35 -84 35h-30v-158h76v-256h-564v256h133v952h-143z" />
<glyph unicode="l" horiz-adv-x="686" d="M-14 1208v256h497v-1054q0 -78 19.5 -107t79.5 -29q8 0 17 1t13 1h13v-280l-31 -4q-23 -2 -76 -2q-82 0 -141.5 13t-120.5 52t-94 123t-33 211v819h-143z" />
<glyph unicode="m" horiz-adv-x="2029" d="M76 799v256h334q72 0 109.5 -32t37.5 -87v-35v-16q0 -6 -2 -8h4q137 203 334 202q205 0 274 -198h4q45 88 137.5 143t211.5 55q147 0 239 -95t92 -300v-428h134v-256h-488v625q0 66 -17.5 99.5t-64.5 33.5q-203 0 -203 -322v-180h134v-256h-488v625q0 66 -17.5 99.5 t-64.5 33.5q-203 0 -203 -342v-160h134v-256h-621v256h133v500q0 43 -45 43h-98z" />
<glyph unicode="n" horiz-adv-x="1449" d="M76 799v256h336q72 0 108.5 -32t36.5 -87v-35v-16q0 -6 -2 -8h4q27 55 80 102q113 100 279 100q162 0 259 -93t97 -302v-428h133v-256h-487v618q0 139 -119 140q-111 0 -169.5 -94.5t-58.5 -217.5v-190h134v-256h-621v256h133v498q0 45 -45 45h-98z" />
<glyph unicode="o" horiz-adv-x="1298" d="M51 524q0 246 172 400.5t424 154.5q256 0 428 -154.5t172 -400.5q0 -244 -172 -396.5t-426 -152.5t-426 152.5t-172 396.5zM410 524.5q0 -114.5 69.5 -184.5t170 -70t170 70t69.5 184.5t-69.5 187t-170 72.5t-170 -72.5t-69.5 -187z" />
<glyph unicode="p" horiz-adv-x="1366" d="M53 799v256h326q72 0 103.5 -27t31.5 -61v-6v-19q0 -6 -2 -8h4q33 41 76 74q94 72 244 71q215 0 345 -152.5t130 -400t-139.5 -399.5t-352.5 -152q-100 0 -198 52q-37 20 -70 49h-4q0 -14 2 -25q2 -16 2 -65v-140h133v-256h-621v256h134v908q0 45 -45 45h-99zM541 520 q0 -102 54 -177t153 -75q88 0 147 66.5t59 185.5q0 117 -57 188.5t-149 71.5q-86 0 -146.5 -66.5t-60.5 -193.5z" />
<glyph unicode="q" horiz-adv-x="1314" d="M55 528.5q0 247.5 134.5 399t347.5 151.5q209 0 301 -123h4q0 10 -2 17q-2 10 -2 41v41h331v-1209h134v-256h-621v256h133v158q0 49 2 66q2 10 2 24h-4q-20 -27 -70 -59q-90 -59 -215 -60q-215 0 -345 153t-130 400.5zM412 528q0 -117 57 -188.5t149 -71.5 q86 0 146.5 66.5t60.5 193.5q0 102 -54 177t-153 75q-88 0 -147 -66.5t-59 -185.5z" />
<glyph unicode="r" horiz-adv-x="974" d="M80 0v256h143v498q0 45 -45 45h-98v256h334q150 0 149 -135v-56q0 -33 -2 -39t-2 -14h4q35 111 128 186.5t208 75.5q23 0 29 -2t12 -2v-348l-20 4q-14 2 -52 2q-143 0 -216.5 -84t-73.5 -233v-154h143v-256h-641z" />
<glyph unicode="s" horiz-adv-x="1042" d="M55 373h297v-54q0 -76 154 -75q129 0 129 61q0 10 -2 19.5t-8.5 17.5t-12.5 13t-18 12.5t-22.5 11.5t-29 10t-32.5 10l-39 12q-25 7 -43 13q-70 23 -120 45.5t-104.5 61t-83 97t-28.5 134.5q0 117 74 191.5t169 100t210 25.5q66 0 132 -12t129.5 -37.5t102.5 -72 t39 -107.5v-143h-297v47q0 57 -106 57q-100 0 -101 -53q0 -43 45.5 -66.5t139.5 -48.5q59 -16 99 -29.5t93 -41t86 -59.5t56.5 -83t23.5 -115q0 -168 -138 -254t-343 -86q-100 0 -200.5 27t-175.5 87.5t-75 141.5v142z" />
<glyph unicode="t" horiz-adv-x="835" d="M39 799v256h154v284h344v-284h221v-256h-221v-373q0 -82 58 -113.5t130 -31.5q8 0 19.5 1t15.5 1h12v-287l-27 -4q-16 -2 -69 -2q-61 0 -117.5 7t-128.5 31.5t-124 65.5t-88 118t-36 177v410h-143z" />
<glyph unicode="u" horiz-adv-x="1421" d="M43 799v256h498v-629q0 -139 116 -139q100 0 160 97t60 224v191h-144v256h498v-754q0 -45 45 -45h88v-256h-326q-72 0 -108.5 31.5t-36.5 87.5v28q0 4 1 11.5t1 9.5v10h-4q-27 -51 -78 -100q-111 -102 -281 -103q-154 0 -250 94.5t-96 301.5v428h-143z" />
<glyph unicode="v" horiz-adv-x="1277" d="M18 1055h562v-256h-95l121 -381q2 -4 23 -94l6 -45h8l6 45l23 94l121 381h-95v256h562v-256h-119l-293 -799h-418l-293 799h-119v256z" />
<glyph unicode="w" horiz-adv-x="1785" d="M20 799v256h562v-256h-105l78 -367q8 -43 12 -92l4 -47h9q0 33 2 47q2 33 14 92l145 623h303l146 -623q10 -39 14 -92q2 -14 2 -47h8l5 47q4 49 12 92l78 367h-105v256h561v-256h-120l-201 -799h-410l-119 487q-10 41 -14 95l-4 45h-8q0 -31 -2 -45q-2 -37 -17 -95 l-118 -487h-410l-201 799h-121z" />
<glyph unicode="x" horiz-adv-x="1191" d="M68 0v256h137l205 276l-195 267h-147v256h370l125 -205q12 -14 33 -57q10 -16 12 -27h4l15 27q25 49 30 57l129 205h336v-256h-125l-192 -258l215 -285h102v-256h-325l-148 225q-10 14 -31 58l-14 26h-4q-2 -10 -12 -26q-14 -27 -33 -58l-139 -225h-348z" />
<glyph unicode="y" horiz-adv-x="1284" d="M18 799v256h580v-256h-102l129 -391q6 -18 13 -54.5t7 -38.5q4 -29 4 -45h8q4 33 9 45q14 59 24 93l125 391h-96v256h547v-256h-109l-340 -891q-131 -338 -491 -338q-119 0 -220 41q-47 18 -81 41l108 252q23 -16 45 -25q53 -25 129 -24q133 0 174 86l4 10l-348 848h-119 z" />
<glyph unicode="z" horiz-adv-x="1130" d="M84 0v217l463 522q27 29 45 43l20 17v4q-20 0 -30 -2q-18 -2 -64 -2h-137v-127h-297v383h942v-219l-455 -521q-27 -29 -45 -43l-20 -16v-4q23 0 33 2q18 2 61 2h160v127h297v-383h-973z" />
<glyph unicode="{" horiz-adv-x="788" d="M55 524v307q51 2 88 25q86 49 86 178v180q0 104 42 175t112 103t129 43t125 11q47 0 63 -2q10 -2 25 -2v-254q-8 0 -14 2t-37 2q-57 0 -103.5 -24.5t-46.5 -85.5v-240q0 -131 -86 -209q-41 -37 -86 -51v-4q49 -14 86 -49q86 -78 86 -209v-260q0 -61 46 -86t104 -25 q31 0 37 2t14 2v-254q-14 0 -25 -2q-16 -2 -63 -2q-66 0 -125 11.5t-129 43t-112 102.5t-42 175v201q0 123 -86 172q-37 22 -88 24z" />
<glyph unicode="|" horiz-adv-x="622" d="M164 -338v1980h295v-1980h-295z" />
<glyph unicode="}" horiz-adv-x="788" d="M63 53q8 0 14.5 -2t37.5 -2q57 0 103 24.5t46 86.5v260q0 131 86 209q37 35 86 49v4q-45 14 -86 51q-86 78 -86 209v240q0 61 -46 85.5t-103 24.5q-31 0 -37 -2t-15 -2v254q14 0 25 2q16 2 64 2q51 0 98 -6t106.5 -26.5t101.5 -54.5t71.5 -97.5t29.5 -147.5v-180 q0 -127 88 -178q37 -20 86 -25v-307q-49 -4 -86 -24q-88 -51 -88 -172v-201q0 -84 -29.5 -147.5t-71.5 -97.5t-101.5 -54.5t-106.5 -26.5t-98 -6q-47 0 -64 2q-10 2 -25 2v254z" />
<glyph unicode="~" horiz-adv-x="1288" d="M100 391q0 416 357 416q63 0 119.5 -25.5t88 -56.5t70.5 -56.5t74 -25.5q51 0 82 40t31 116h272q0 -416 -354 -416q-66 0 -121 25.5t-87 56.5t-71 56.5t-76 25.5q-49 0 -79.5 -40t-30.5 -116h-275z" />
<glyph unicode="&#xa1;" horiz-adv-x="598" d="M115 -410l32 1010h304l32 -1010h-368zM137 745v308h324v-308h-324z" />
<glyph unicode="&#xa2;" horiz-adv-x="1187" d="M61 733q0 213 126 375t311 205v174h225v-174q141 -31 245.5 -124t149.5 -228l-315 -123q-23 66 -70 109.5t-115 43.5q-78 0 -139 -72.5t-61 -185.5q0 -123 57 -190.5t143 -67.5q66 0 115 44t70 110l315 -123q-43 -121 -146.5 -225.5t-248.5 -126.5v-179h-225v179 q-186 43 -311.5 203.5t-125.5 375.5z" />
<glyph unicode="&#xa3;" horiz-adv-x="1300" d="M80 0v276h164v336h-150v230h150v205q0 197 141 319.5t358 122.5q152 0 291 -80q61 -37 111 -80l-187 -237q-33 25 -65 41q-68 39 -139 38q-61 0 -102.5 -36.5t-41.5 -98.5v-194h318v-230h-318v-325h314v215h307v-502h-1151z" />
<glyph unicode="&#xa5;" horiz-adv-x="1351" d="M66 1464h411l109 -293q33 -88 63 -186l25 -86h4l27 86l61 186l108 293h412l-282 -571h190v-197h-287l-49 -100v-57h336v-197h-336v-342h-366v342h-334v197h334v57l-50 100h-284v197h188z" />
<glyph unicode="&#xa7;" horiz-adv-x="1073" d="M66 31l141 235q35 -31 80 -55q96 -57 200 -57q201 0 201 192q0 70 -26 158l-140 491h269l151 -559q20 -74 21 -153q0 -184 -122 -297t-352 -113q-170 0 -313 78q-65 33 -110 80zM113 1079q0 184 121.5 297t351.5 113q170 0 313 -78q63 -35 111 -80l-152 -221 q-31 25 -76 49q-90 47 -192 47q-94 0 -147.5 -36.5t-53.5 -133.5q0 -63 21 -137l147 -532h-268l-156 559q-20 73 -20 153z" />
<glyph unicode="&#xa8;" horiz-adv-x="993" d="M113 1579v287h268v-287h-268zM612 1579v287h269v-287h-269z" />
<glyph unicode="&#xa9;" horiz-adv-x="1613" d="M68 733.5q0 313.5 216 533.5t519 220q309 0 526 -220t217 -533.5t-217 -536t-526 -222.5q-303 0 -519 222.5t-216 536zM299 733.5q0 -227.5 145.5 -387.5t358.5 -160q217 0 365.5 159t148.5 388q0 227 -148.5 385t-365.5 158q-213 0 -358.5 -157.5t-145.5 -385zM455 727 q0 160 104.5 271.5t247.5 111.5q170 0 266 -117q43 -53 66 -119l-205 -79q-10 31 -25 51q-37 49 -94 49q-49 0 -85 -47t-36 -121q0 -82 33 -125t88 -43t94 51q16 20 25 49l205 -79q-20 -61 -66 -117q-98 -119 -266 -119q-143 0 -247.5 111.5t-104.5 271.5z" />
<glyph unicode="&#xaa;" horiz-adv-x="854" d="M109 993q0 223 370 224h10v16q0 74 -96 74q-53 0 -110 -27q-8 -4 -54 -29l-77 154q39 25 73 41q82 39 209 39q145 0 221 -74t76 -203v-409h-221v80h-4q-16 -25 -41 -48q-59 -47 -141 -47q-84 0 -149.5 58.5t-65.5 150.5zM115 549v174h624v-174h-624zM348 1008 q0 -41 47 -41q37 0 64.5 28.5t27.5 63.5v10h-20q-119 0 -119 -61z" />
<glyph unicode="&#xab;" horiz-adv-x="1335" d="M59 578l336 421h324l-336 -421l336 -420h-324zM592 578l336 421h323l-336 -421l336 -420h-323z" />
<glyph unicode="&#xac;" horiz-adv-x="1214" d="M66 690v266h1036v-686h-277v420h-759z" />
<glyph unicode="&#xad;" horiz-adv-x="925" d="M141 434v307h643v-307h-643z" />
<glyph unicode="&#xae;" horiz-adv-x="1613" d="M68 733.5q0 313.5 216 533.5t519 220q309 0 526 -220t217 -533.5t-217 -536t-526 -222.5q-303 0 -519 222.5t-216 536zM299 733.5q0 -227.5 145.5 -387.5t358.5 -160q217 0 365.5 159t148.5 388q0 227 -148.5 385t-365.5 158q-213 0 -358.5 -157.5t-145.5 -385zM537 383 v711h333q117 0 183.5 -63.5t66.5 -172.5q0 -76 -40 -122t-79 -60v-4l7 -8q10 -10 20 -33l129 -248h-242l-100 242h-57v-242h-221zM758 772h55q82 0 82 86q0 84 -78 84h-59v-170z" />
<glyph unicode="&#xaf;" horiz-adv-x="993" d="M215 1602v229h563v-229h-563z" />
<glyph unicode="&#xb0;" horiz-adv-x="860" d="M59 1141q0 143 108.5 248.5t262.5 105.5t262.5 -105.5t108.5 -248.5q0 -147 -108.5 -250t-262.5 -103q-156 0 -263.5 103t-107.5 250zM317 1143q0 -47 33 -78t80 -31t80 31t33 78q0 43 -33 74.5t-80 31.5t-80 -31.5t-33 -74.5z" />
<glyph unicode="&#xb1;" horiz-adv-x="1290" d="M86 455v266h420v457h278v-457h420v-266h-420v-455h-278v455h-420zM106 -143h1078v-267h-1078v267z" />
<glyph unicode="&#xb2;" horiz-adv-x="819" d="M55 971q0 96 43 172t104.5 121t123 79.5t104.5 69.5t43 72q0 33 -26.5 51t-61.5 18q-53 0 -106 -45q-29 -29 -43 -47l-170 146q35 55 84 92q111 90 262 90q137 0 229 -74t92 -203q0 -82 -40 -145t-98 -102t-117.5 -70t-104.5 -62.5t-51 -66.5h225v88h198v-289h-677l-7 39 q-6 33 -6 66z" />
<glyph unicode="&#xb3;" horiz-adv-x="804" d="M57 985l125 174l49 -43q66 -45 138 -45q53 0 81.5 23.5t28.5 62.5q0 74 -127 74h-63l-49 117l147 182q10 14 33 33l16 14v8l-22 -4q-29 -4 -47 -4h-95v-96h-198v288h637v-161l-181 -207q209 -45 209 -238q0 -129 -94 -223t-260 -94q-135 0 -246 69q-49 31 -82 70z" />
<glyph unicode="&#xb4;" horiz-adv-x="991" d="M201 1559l237 307h363l-309 -307h-291z" />
<glyph unicode="&#xb5;" horiz-adv-x="1290" d="M123 -410v1465h354v-619q0 -139 113 -139q109 0 166 83t57 208v467h354v-1055h-340v102q0 20 2 35q2 6 2 21h-6q-27 -51 -71 -90q-100 -92 -256 -93q-33 0 -62 5l-24 4h-4l8 -60q8 -47 8 -121v-213h-301z" />
<glyph unicode="&#x3bc;" horiz-adv-x="1290" d="M123 -410v1465h354v-619q0 -139 113 -139q109 0 166 83t57 208v467h354v-1055h-340v102q0 20 2 35q2 6 2 21h-6q-27 -51 -71 -90q-100 -92 -256 -93q-33 0 -62 5l-24 4h-4l8 -60q8 -47 8 -121v-213h-301z" />
<glyph unicode="&#xb6;" horiz-adv-x="1351" d="M47 981q0 205 139.5 344t337.5 139h731v-307h-485v-1259h-246v596q-197 0 -337 142t-140 345zM897 -102v1157h246v-1157h-246z" />
<glyph unicode="&#xb7;" horiz-adv-x="606" d="M141 436v336h324v-336h-324z" />
<glyph unicode="&#xb8;" horiz-adv-x="991" d="M285 -307l28 -8q25 -8 72 -9q98 0 98 54q0 57 -114 57h-52l91 272l147 -34v-15l-39 -112q84 -4 139.5 -50.5t55.5 -126.5q0 -98 -85 -149t-200 -51q-63 0 -98 8q-14 2 -43 10v154z" />
<glyph unicode="&#xb9;" horiz-adv-x="774" d="M39 1513l276 256h222v-702h204v-201h-665v201h203v313q0 25 4 45l4 17h-8l-9 -10q-2 -2 -8 -11.5t-12 -13.5l-64 -55z" />
<glyph unicode="&#xba;" horiz-adv-x="937" d="M96 1136.5q0 153.5 107.5 251t263.5 97.5q158 0 267.5 -97.5t109.5 -251t-108.5 -251t-266.5 -97.5t-265.5 97.5t-107.5 251zM123 549v174h692v-174h-692zM340 1137q0 -63 37 -100.5t92 -37.5t92 37t37 101q0 61 -37 100t-92 39t-92 -39t-37 -100z" />
<glyph unicode="&#xbb;" horiz-adv-x="1335" d="M84 158l336 420l-336 421h324l335 -421l-335 -420h-324zM616 158l336 420l-336 421h324l336 -421l-336 -420h-324z" />
<glyph unicode="&#xbc;" horiz-adv-x="2084" d="M68 1208l276 256h221v-702h205v-201h-666v201h203v313q0 25 4 45l4 17h-8l-8 -11q-2 -2 -8 -11t-12 -13l-64 -55zM580 0l688 1464h243l-688 -1464h-243zM1255 188v162l351 553h307v-526h108v-189h-108v-188h-254v188h-404zM1479 377h180v215l6 67l4 35h-8q-4 -23 -10 -32 q-18 -43 -31 -62l-141 -219v-4z" />
<glyph unicode="&#xbd;" horiz-adv-x="2064" d="M57 1208l277 256h221v-702h205v-201h-666v201h203v313q0 25 4 45l4 17h-8l-8 -11q-2 -2 -8.5 -11t-12.5 -13l-63 -55zM578 0l688 1464h243l-688 -1464h-243zM1300 104q0 96 43 172t104.5 121t123 80t104.5 70t43 71q0 33 -26.5 51.5t-61.5 18.5q-53 0 -106 -45 q-29 -29 -43 -47l-170 145q35 55 84 93q111 90 262 90q137 0 229 -74t92 -203q0 -82 -40 -145.5t-98 -102.5t-117.5 -69.5t-104.5 -62t-51 -66.5h225v88h199v-289h-678l-6 39q-7 34 -7 65z" />
<glyph unicode="&#xbe;" horiz-adv-x="2082" d="M74 680l125 174q23 -23 49 -43q66 -45 137 -45q53 0 82 23.5t29 62.5q0 74 -127 74h-64l-49 116l147 183q10 14 33 32l17 15v8l-23 -4q-29 -4 -47 -4h-94v-96h-199v288h637v-161l-180 -207q209 -45 209 -238q0 -129 -94.5 -223t-260.5 -94q-135 0 -245 69q-49 31 -82 70z M580 0l688 1464h243l-688 -1464h-243zM1255 188v162l351 553h307v-526h108v-189h-108v-188h-254v188h-404zM1479 377h180v215l6 67l4 35h-8q-4 -23 -10 -32q-18 -43 -31 -62l-141 -219v-4z" />
<glyph unicode="&#xbf;" horiz-adv-x="1036" d="M78 -29q0 92 36 169t87 125t103 90t88 88t36 96v63h340v-92q0 -76 -33 -140.5t-81 -106.5l-95 -80q-47 -38 -80 -81t-33 -90q0 -53 42 -87t103.5 -34t135.5 43q31 20 59 46l197 -240q-45 -49 -111 -86q-143 -84 -317 -84q-188 0 -332.5 107.5t-144.5 293.5zM436 748v307 h324v-307h-324z" />
<glyph unicode="&#xc0;" horiz-adv-x="1495" d="M18 0v266h121l400 1198h417l400 -1198h121v-266h-613v266h127l-55 195h-377l-55 -195h127v-266h-613zM328 1866h362l238 -307h-291zM637 739h219l-76 271q-8 29 -15 67.5t-7 42.5l-6 43h-9q0 -14 -4 -43q-2 -8 -5 -27.5t-8 -41t-11 -41.5z" />
<glyph unicode="&#xc1;" horiz-adv-x="1499" d="M20 0v266h121l400 1198h417l400 -1198h121v-266h-613v266h127l-55 195h-377l-55 -195h127v-266h-613zM561 1559l238 307h362l-309 -307h-291zM639 739h219l-76 271q-8 29 -15 67.5t-7 42.5l-6 43h-9q0 -14 -4 -43q-2 -8 -5 -27.5t-8 -41t-11 -41.5z" />
<glyph unicode="&#xc2;" horiz-adv-x="1499" d="M20 0v266h121l400 1198h417l400 -1198h121v-266h-613v266h127l-55 195h-377l-55 -195h127v-266h-613zM371 1559l202 307h345l202 -307h-276l-96 167h-5l-96 -167h-276zM639 739h219l-76 271q-8 29 -15 67.5t-7 42.5l-6 43h-9q0 -14 -4 -43q-2 -8 -5 -27.5t-8 -41 t-11 -41.5z" />
<glyph unicode="&#xc3;" horiz-adv-x="1499" d="M20 0v266h121l400 1198h417l400 -1198h121v-266h-613v266h127l-55 195h-377l-55 -195h127v-266h-613zM334 1559q0 313 262 313q57 0 105.5 -31t85 -61.5t67.5 -30.5q76 0 76 117h229q0 -313 -262 -314q-57 0 -105.5 31t-85 61.5t-67.5 30.5q-76 0 -76 -116h-229zM639 739 h219l-76 271q-8 29 -15 67.5t-7 42.5l-6 43h-9q0 -14 -4 -43q-2 -8 -5 -27.5t-8 -41t-11 -41.5z" />
<glyph unicode="&#xc4;" horiz-adv-x="1499" d="M20 0v266h121l400 1198h417l400 -1198h121v-266h-613v266h127l-55 195h-377l-55 -195h127v-266h-613zM362 1579v287h269v-287h-269zM639 739h219l-76 271q-8 29 -15 67.5t-7 42.5l-6 43h-9q0 -14 -4 -43q-2 -8 -5 -27.5t-8 -41t-11 -41.5zM862 1579v287h268v-287h-268z " />
<glyph unicode="&#xc5;" horiz-adv-x="1499" d="M20 0v266h121l400 1198h417l400 -1198h121v-266h-613v266h127l-55 195h-377l-55 -195h127v-266h-613zM506 1716q0 92 71.5 141.5t168 49.5t170 -49.5t73.5 -141.5q0 -90 -72.5 -138t-171.5 -48q-96 0 -167.5 48t-71.5 138zM639 739h219l-76 271q-8 29 -15 67.5t-7 42.5 l-6 43h-9q0 -14 -4 -43q-2 -8 -5 -27.5t-8 -41t-11 -41.5zM672 1716q0 -76 73 -76q35 0 56.5 20.5t21.5 55.5q0 37 -21.5 58.5t-56.5 21.5q-33 0 -53 -21.5t-20 -58.5z" />
<glyph unicode="&#xc6;" horiz-adv-x="2039" d="M23 0v266h110l389 932h-143v266h1540v-432h-287v146h-299v-297h418v-287h-418v-307h324v145h287v-432h-1143v266h166v334h-342l-129 -334h139v-266h-612zM729 868h238v310h-117z" />
<glyph unicode="&#xc7;" horiz-adv-x="1531" d="M70 735q0 324 221 539t545 215q80 0 170 -13.5t190 -43t165.5 -91t65.5 -145.5v-231h-327v112q0 55 -77 80t-171 25q-182 0 -292.5 -114t-110.5 -312q0 -221 117.5 -347t305.5 -126q80 0 162 23.5t82 80.5v113h328v-236q0 -74 -57.5 -131t-146.5 -90t-179 -49.5 t-176 -18.5l-27 -77q84 -4 139.5 -50.5t55.5 -126.5q0 -98 -85 -149t-200 -51q-63 0 -98 8q-14 2 -43 10v154l28 -8q25 -8 72 -9q98 0 98 54q0 57 -114 57h-52l64 197q-289 41 -471 250.5t-182 500.5z" />
<glyph unicode="&#xc8;" horiz-adv-x="1349" d="M100 0v266h164v932h-164v266h1129v-432h-307v146h-291v-297h428v-287h-428v-307h315v145h307v-432h-1153zM285 1866h362l238 -307h-291z" />
<glyph unicode="&#xc9;" horiz-adv-x="1349" d="M100 0v266h164v932h-164v266h1129v-432h-307v146h-291v-297h428v-287h-428v-307h315v145h307v-432h-1153zM516 1559l238 307h362l-309 -307h-291z" />
<glyph unicode="&#xca;" horiz-adv-x="1349" d="M100 0v266h164v932h-164v266h1129v-432h-307v146h-291v-297h428v-287h-428v-307h315v145h307v-432h-1153zM326 1559l202 307h344l203 -307h-276l-97 167h-4l-96 -167h-276z" />
<glyph unicode="&#xcb;" horiz-adv-x="1349" d="M100 0v266h164v932h-164v266h1129v-432h-307v146h-291v-297h428v-287h-428v-307h315v145h307v-432h-1153zM317 1579v287h269v-287h-269zM817 1579v287h268v-287h-268z" />
<glyph unicode="&#xcc;" horiz-adv-x="894" d="M33 1866h362l238 -307h-291zM100 0v266h164v932h-164v266h695v-266h-164v-932h164v-266h-695z" />
<glyph unicode="&#xcd;" horiz-adv-x="894" d="M100 0v266h164v932h-164v266h695v-266h-164v-932h164v-266h-695zM264 1559l238 307h362l-309 -307h-291z" />
<glyph unicode="&#xce;" horiz-adv-x="894" d="M74 1559l202 307h345l202 -307h-276l-96 167h-5l-96 -167h-276zM100 0v266h164v932h-164v266h695v-266h-164v-932h164v-266h-695z" />
<glyph unicode="&#xcf;" horiz-adv-x="894" d="M66 1579v287h268v-287h-268zM100 0v266h164v932h-164v266h695v-266h-164v-932h164v-266h-695zM565 1579v287h269v-287h-269z" />
<glyph unicode="&#xd0;" horiz-adv-x="1626" d="M100 0v266h164v316h-143v286h143v330h-164v266h688q352 0 556 -193.5t204 -535.5q0 -344 -204.5 -539.5t-555.5 -195.5h-688zM631 287h143q186 0 290.5 114.5t104.5 333.5q0 215 -106.5 329t-288.5 114h-143v-310h233v-286h-233v-295z" />
<glyph unicode="&#xd1;" horiz-adv-x="1759" d="M100 0v266h164v932h-164v266h535l459 -776q25 -41 43 -96l18 -53h8l-6 57q-6 33 -6 106v496h-172v266h702v-266h-163v-1198h-369l-461 772q-29 55 -43 96l-18 54h-9l7 -58q6 -33 6 -106v-492h172v-266h-703zM473 1559q0 313 262 313q57 0 105.5 -31t85.5 -61.5t67 -30.5 q76 0 76 117h229q0 -313 -262 -314q-57 0 -105 31t-85 61.5t-68 30.5q-76 0 -76 -116h-229z" />
<glyph unicode="&#xd2;" d="M70 741q0 317 218 532.5t552 215.5t552 -215t218 -533q0 -326 -218 -546t-552 -220t-552 220t-218 546zM424 1866h362l238 -307h-291zM449 741q0 -190 114.5 -319t276 -129t276.5 129t115 319q0 182 -115 306t-276.5 124t-276 -124t-114.5 -306z" />
<glyph unicode="&#xd3;" d="M70 741q0 317 218 532.5t552 215.5t552 -215t218 -533q0 -326 -218 -546t-552 -220t-552 220t-218 546zM449 741q0 -190 114.5 -319t276 -129t276.5 129t115 319q0 182 -115 306t-276.5 124t-276 -124t-114.5 -306zM655 1559l238 307h362l-309 -307h-291z" />
<glyph unicode="&#xd4;" d="M70 741q0 317 218 532.5t552 215.5t552 -215t218 -533q0 -326 -218 -546t-552 -220t-552 220t-218 546zM449 741q0 -190 114.5 -319t276 -129t276.5 129t115 319q0 182 -115 306t-276.5 124t-276 -124t-114.5 -306zM465 1559l203 307h344l202 -307h-276l-96 167h-4 l-97 -167h-276z" />
<glyph unicode="&#xd5;" d="M70 741q0 317 218 532.5t552 215.5t552 -215t218 -533q0 -326 -218 -546t-552 -220t-552 220t-218 546zM428 1559q0 313 262 313q57 0 105.5 -31t85.5 -61.5t67 -30.5q76 0 76 117h229q0 -313 -262 -314q-57 0 -105 31t-85 61.5t-68 30.5q-76 0 -76 -116h-229zM449 741 q0 -190 114.5 -319t276 -129t276.5 129t115 319q0 182 -115 306t-276.5 124t-276 -124t-114.5 -306z" />
<glyph unicode="&#xd6;" d="M70 741q0 317 218 532.5t552 215.5t552 -215t218 -533q0 -326 -218 -546t-552 -220t-552 220t-218 546zM449 741q0 -190 114.5 -319t276 -129t276.5 129t115 319q0 182 -115 306t-276.5 124t-276 -124t-114.5 -306zM457 1579v287h268v-287h-268zM956 1579v287h269v-287 h-269z" />
<glyph unicode="&#xd7;" horiz-adv-x="1290" d="M88 188l373 400l-373 401l188 189l367 -394l369 394l188 -189l-375 -401l375 -400l-188 -188l-369 393l-367 -393z" />
<glyph unicode="&#xd8;" horiz-adv-x="1671" d="M70 741q0 317 218 532.5t548 215.5q203 0 360 -82l84 115l143 -97l-82 -112q260 -221 261 -572q0 -326 -218.5 -546t-547.5 -220q-211 0 -390 99l-94 -131l-143 98l98 135q-237 221 -237 565zM440 741q0 -158 80 -270l475 655q-80 35 -159 35q-166 0 -281 -120t-115 -300 zM647 352q88 -49 189 -49q166 0 280.5 125t114.5 313q0 170 -98 281z" />
<glyph unicode="&#xd9;" d="M55 1198v266h695v-266h-164v-639q0 -98 37 -162q61 -104 219 -104q145 0 213 102q39 63 39 164v639h-164v266h694v-266h-164v-639q0 -227 -121 -381q-168 -203 -499 -203q-158 0 -288 52.5t-210 144.5q-123 137 -123 387v639h-164zM424 1866h362l238 -307h-291z" />
<glyph unicode="&#xda;" d="M55 1198v266h695v-266h-164v-639q0 -98 37 -162q61 -104 219 -104q145 0 213 102q39 63 39 164v639h-164v266h694v-266h-164v-639q0 -227 -121 -381q-168 -203 -499 -203q-158 0 -288 52.5t-210 144.5q-123 137 -123 387v639h-164zM655 1559l238 307h362l-309 -307h-291z " />
<glyph unicode="&#xdb;" d="M55 1198v266h695v-266h-164v-639q0 -98 37 -162q61 -104 219 -104q145 0 213 102q39 63 39 164v639h-164v266h694v-266h-164v-639q0 -227 -121 -381q-168 -203 -499 -203q-158 0 -288 52.5t-210 144.5q-123 137 -123 387v639h-164zM465 1559l203 307h344l202 -307h-276 l-96 167h-4l-97 -167h-276z" />
<glyph unicode="&#xdc;" d="M55 1198v266h695v-266h-164v-639q0 -98 37 -162q61 -104 219 -104q145 0 213 102q39 63 39 164v639h-164v266h694v-266h-164v-639q0 -227 -121 -381q-168 -203 -499 -203q-158 0 -288 52.5t-210 144.5q-123 137 -123 387v639h-164zM457 1579v287h268v-287h-268zM956 1579 v287h269v-287h-269z" />
<glyph unicode="&#xdd;" horiz-adv-x="1374" d="M20 1198v266h607v-266h-123l149 -270q8 -12 25 -51q2 -4 8 -21h4l8 21l25 51l149 270h-122v266h604v-266h-125l-359 -598v-334h164v-266h-694v266h164v334l-359 598h-125zM508 1559l237 307h363l-309 -307h-291z" />
<glyph unicode="&#xde;" horiz-adv-x="1376" d="M100 0v266h164v932h-164v266h695v-266h-172v-94h286q213 0 327 -96.5t114 -264.5q0 -174 -115 -274t-326 -100h-286v-103h172v-266h-695zM623 635h190q92 0 132 26.5t40 81.5q0 53 -37 74t-129 21h-196v-203z" />
<glyph unicode="&#xdf;" horiz-adv-x="1361" d="M57 256h133v823q0 193 154 301.5t369 108.5q193 0 333 -111.5t140 -283.5q0 -70 -37 -128.5t-74 -106.5t-37 -93q0 -33 43 -73t94.5 -77.5t94.5 -110.5t43 -161q0 -170 -116 -264t-282 -94q-104 0 -194 22q-41 10 -59 21v290l59 -18q78 -20 135 -20q102 0 102 86 q0 25 -28.5 53.5t-69.5 59t-81 67.5t-68.5 92t-28.5 118.5t37 123t73.5 110.5t36.5 94q0 49 -33.5 79t-93.5 30q-158 0 -157 -139v-1055h-488v256z" />
<glyph unicode="&#xe0;" horiz-adv-x="1193" d="M47 301q0 109 62.5 184.5t161 109.5t180 47t159.5 13h64v31q0 117 -150 117q-88 0 -198 -49q-39 -16 -93 -52l-122 240q51 37 122 70q156 68 324 67q231 0 351 -110.5t120 -319.5v-348q0 -45 45 -45h78v-256h-305q-72 0 -106.5 33t-34.5 78v6q0 18 2 22t2 11h-4 q-27 -47 -72 -87q-100 -88 -240 -88q-145 0 -245.5 86t-100.5 240zM156 1464h362l238 -307h-291zM403 326q0 -41 26 -68t69 -27q66 0 123 65.5t57 135.5v25h-33q-98 0 -170 -32.5t-72 -98.5z" />
<glyph unicode="&#xe1;" horiz-adv-x="1193" d="M47 301q0 109 62.5 184.5t161 109.5t180 47t159.5 13h64v31q0 117 -150 117q-88 0 -198 -49q-39 -16 -93 -52l-122 240q51 37 122 70q156 68 324 67q231 0 351 -110.5t120 -319.5v-348q0 -45 45 -45h78v-256h-305q-72 0 -106.5 33t-34.5 78v6q0 18 2 22t2 11h-4 q-27 -47 -72 -87q-100 -88 -240 -88q-145 0 -245.5 86t-100.5 240zM387 1157l238 307h362l-309 -307h-291zM403 326q0 -41 26 -68t69 -27q66 0 123 65.5t57 135.5v25h-33q-98 0 -170 -32.5t-72 -98.5z" />
<glyph unicode="&#xe2;" horiz-adv-x="1193" d="M47 301q0 109 62.5 184.5t161 109.5t180 47t159.5 13h64v31q0 117 -150 117q-88 0 -198 -49q-39 -16 -93 -52l-122 240q51 37 122 70q156 68 324 67q231 0 351 -110.5t120 -319.5v-348q0 -45 45 -45h78v-256h-305q-72 0 -106.5 33t-34.5 78v6q0 18 2 22t2 11h-4 q-27 -47 -72 -87q-100 -88 -240 -88q-145 0 -245.5 86t-100.5 240zM197 1157l202 307h344l203 -307h-276l-97 168h-4l-96 -168h-276zM403 326q0 -41 26 -68t69 -27q66 0 123 65.5t57 135.5v25h-33q-98 0 -170 -32.5t-72 -98.5z" />
<glyph unicode="&#xe3;" horiz-adv-x="1193" d="M47 301q0 109 62.5 184.5t161 109.5t180 47t159.5 13h64v31q0 117 -150 117q-88 0 -198 -49q-39 -16 -93 -52l-122 240q51 37 122 70q156 68 324 67q231 0 351 -110.5t120 -319.5v-348q0 -45 45 -45h78v-256h-305q-72 0 -106.5 33t-34.5 78v6q0 18 2 22t2 11h-4 q-27 -47 -72 -87q-100 -88 -240 -88q-145 0 -245.5 86t-100.5 240zM160 1157q0 313 262 313q57 0 105 -30.5t85 -61t68 -30.5q76 0 76 116h229q0 -313 -262 -313q-57 0 -105.5 30.5t-85 61.5t-67.5 31q-76 0 -76 -117h-229zM403 326q0 -41 26 -68t69 -27q66 0 123 65.5 t57 135.5v25h-33q-98 0 -170 -32.5t-72 -98.5z" />
<glyph unicode="&#xe4;" horiz-adv-x="1193" d="M47 301q0 109 62.5 184.5t161 109.5t180 47t159.5 13h64v31q0 117 -150 117q-88 0 -198 -49q-39 -16 -93 -52l-122 240q51 37 122 70q156 68 324 67q231 0 351 -110.5t120 -319.5v-348q0 -45 45 -45h78v-256h-305q-72 0 -106.5 33t-34.5 78v6q0 18 2 22t2 11h-4 q-27 -47 -72 -87q-100 -88 -240 -88q-145 0 -245.5 86t-100.5 240zM188 1178v286h269v-286h-269zM403 326q0 -41 26 -68t69 -27q66 0 123 65.5t57 135.5v25h-33q-98 0 -170 -32.5t-72 -98.5zM688 1178v286h268v-286h-268z" />
<glyph unicode="&#xe5;" horiz-adv-x="1193" d="M47 301q0 109 62.5 184.5t161 109.5t180 47t159.5 13h64v31q0 117 -150 117q-88 0 -198 -49q-39 -16 -93 -52l-122 240q51 37 122 70q156 68 324 67q231 0 351 -110.5t120 -319.5v-348q0 -45 45 -45h78v-256h-305q-72 0 -106.5 33t-34.5 78v6q0 18 2 22t2 11h-4 q-27 -47 -72 -87q-100 -88 -240 -88q-145 0 -245.5 86t-100.5 240zM332 1315q0 92 71.5 141t168 49t170 -49t73.5 -141q0 -90 -72.5 -138.5t-171.5 -48.5q-96 0 -167.5 48.5t-71.5 138.5zM403 326q0 -41 26 -68t69 -27q66 0 123 65.5t57 135.5v25h-33q-98 0 -170 -32.5 t-72 -98.5zM498 1315q0 -76 73 -76q35 0 56.5 20.5t21.5 55.5q0 37 -21.5 58.5t-56.5 21.5q-33 0 -53 -21.5t-20 -58.5z" />
<glyph unicode="&#xe6;" horiz-adv-x="1738" d="M43 311q0 88 47 154.5t113.5 101.5t157 56.5t157 26.5t133.5 5h19v21q0 74 -37 100.5t-107 26.5q-88 0 -202 -49q-41 -16 -95 -52l-123 240q57 39 127 70q156 68 326 67q201 0 315 -104h5q127 104 315 104q223 0 355 -145.5t132 -374.5q0 -18 -4 -63l-4 -37h-665 q18 -100 85.5 -149.5t160 -49.5t202.5 53q43 20 88 52l131 -236q-57 -45 -121 -76q-160 -78 -329 -78q-276 0 -424 185h-4q-33 -59 -132.5 -121t-263.5 -62q-152 0 -255 92t-103 242zM389 326q0 -39 25.5 -63.5t72.5 -24.5q72 0 129.5 62t57.5 132v25h-33q-100 0 -176 -32.5 t-76 -98.5zM1016 655h309q0 61 -37 109.5t-94 48.5q-141 0 -178 -158z" />
<glyph unicode="&#xe7;" horiz-adv-x="1161" d="M51 524q0 233 163 394t415 161q115 0 215 -25.5t175 -88t75 -154.5v-168h-301v64q0 37 -43 57t-107 20q-119 0 -177 -66.5t-58 -180.5q0 -133 74.5 -201t191.5 -68q170 0 317 117l119 -248q-164 -152 -442 -162l-27 -77q84 -4 139.5 -50.5t55.5 -126.5q0 -98 -85 -149 t-200 -51q-63 0 -98 8q-14 2 -43 10v154l28 -8q25 -8 72 -9q98 0 98 54q0 57 -114 57h-52l66 203q-197 39 -327 182t-130 352z" />
<glyph unicode="&#xe8;" horiz-adv-x="1150" d="M51 528q0 238 149.5 394.5t399.5 156.5q231 0 361.5 -142t130.5 -368q0 -20 -5 -65l-4 -41h-669q18 -98 85.5 -146.5t160 -48.5t206.5 51q51 23 90 50l129 -246q-51 -39 -120 -74q-152 -74 -334 -74q-268 0 -424 164t-156 389zM180 1464h363l237 -307h-291zM422 657h303 q0 66 -37 111t-96 45q-135 0 -170 -156z" />
<glyph unicode="&#xe9;" horiz-adv-x="1150" d="M51 528q0 238 149.5 394.5t399.5 156.5q231 0 361.5 -142t130.5 -368q0 -20 -5 -65l-4 -41h-669q18 -98 85.5 -146.5t160 -48.5t206.5 51q51 23 90 50l129 -246q-51 -39 -120 -74q-152 -74 -334 -74q-268 0 -424 164t-156 389zM412 1157l237 307h363l-310 -307h-290z M422 657h303q0 66 -37 111t-96 45q-135 0 -170 -156z" />
<glyph unicode="&#xea;" horiz-adv-x="1150" d="M51 528q0 238 149.5 394.5t399.5 156.5q231 0 361.5 -142t130.5 -368q0 -20 -5 -65l-4 -41h-669q18 -98 85.5 -146.5t160 -48.5t206.5 51q51 23 90 50l129 -246q-51 -39 -120 -74q-152 -74 -334 -74q-268 0 -424 164t-156 389zM221 1157l203 307h344l203 -307h-277 l-96 168h-4l-96 -168h-277zM422 657h303q0 66 -37 111t-96 45q-135 0 -170 -156z" />
<glyph unicode="&#xeb;" horiz-adv-x="1150" d="M51 528q0 238 149.5 394.5t399.5 156.5q231 0 361.5 -142t130.5 -368q0 -20 -5 -65l-4 -41h-669q18 -98 85.5 -146.5t160 -48.5t206.5 51q51 23 90 50l129 -246q-51 -39 -120 -74q-152 -74 -334 -74q-268 0 -424 164t-156 389zM213 1178v286h268v-286h-268zM422 657h303 q0 66 -37 111t-96 45q-135 0 -170 -156zM713 1178v286h268v-286h-268z" />
<glyph unicode="&#xec;" horiz-adv-x="763" d="M-23 1464h363l238 -307h-291zM76 799v256h497v-799h134v-256h-621v256h133v543h-143z" />
<glyph unicode="&#xed;" horiz-adv-x="763" d="M76 799v256h497v-799h134v-256h-621v256h133v543h-143zM209 1157l237 307h363l-309 -307h-291z" />
<glyph unicode="&#xee;" horiz-adv-x="763" d="M18 1157l203 307h344l203 -307h-276l-97 168h-4l-96 -168h-277zM76 799v256h497v-799h134v-256h-621v256h133v543h-143z" />
<glyph unicode="&#xef;" horiz-adv-x="763" d="M31 1178v286h268v-286h-268zM76 799v256h497v-799h134v-256h-621v256h133v543h-143zM469 1178v286h268v-286h-268z" />
<glyph unicode="&#xf0;" horiz-adv-x="1210" d="M53 494q0 186 130 321t343 135q68 0 101 -8q18 -2 41 -10h4q-70 96 -154 143l-383 -155v153l215 88q-135 57 -221 74l98 276q281 -61 502 -194l303 129v-154l-176 -75q270 -256 270 -637q0 -113 -29.5 -215.5t-91 -192.5t-173 -143.5t-259.5 -53.5q-238 0 -379 154 t-141 365zM410 483q0 -90 41 -151.5t129 -61.5q96 0 143 71t47 171q0 76 -45 122t-125 46q-94 0 -142 -56.5t-48 -140.5z" />
<glyph unicode="&#xf1;" horiz-adv-x="1449" d="M76 799v256h336q72 0 108.5 -32t36.5 -87v-35v-16q0 -6 -2 -8h4q27 55 80 102q113 100 279 100q162 0 259 -93t97 -302v-428h133v-256h-487v618q0 139 -119 140q-111 0 -169.5 -94.5t-58.5 -217.5v-190h134v-256h-621v256h133v498q0 45 -45 45h-98zM342 1157 q0 313 262 313q57 0 105.5 -30.5t85 -61t67.5 -30.5q76 0 76 116h229q0 -313 -262 -313q-57 0 -105 30.5t-85 61.5t-68 31q-76 0 -76 -117h-229z" />
<glyph unicode="&#xf2;" horiz-adv-x="1298" d="M51 524q0 246 172 400.5t424 154.5q256 0 428 -154.5t172 -400.5q0 -244 -172 -396.5t-426 -152.5t-426 152.5t-172 396.5zM233 1464h363l238 -307h-291zM410 524.5q0 -114.5 69.5 -184.5t170 -70t170 70t69.5 184.5t-69.5 187t-170 72.5t-170 -72.5t-69.5 -187z" />
<glyph unicode="&#xf3;" horiz-adv-x="1298" d="M51 524q0 246 172 400.5t424 154.5q256 0 428 -154.5t172 -400.5q0 -244 -172 -396.5t-426 -152.5t-426 152.5t-172 396.5zM410 524.5q0 -114.5 69.5 -184.5t170 -70t170 70t69.5 184.5t-69.5 187t-170 72.5t-170 -72.5t-69.5 -187zM465 1157l237 307h363l-309 -307h-291 z" />
<glyph unicode="&#xf4;" horiz-adv-x="1298" d="M51 524q0 246 172 400.5t424 154.5q256 0 428 -154.5t172 -400.5q0 -244 -172 -396.5t-426 -152.5t-426 152.5t-172 396.5zM274 1157l203 307h344l203 -307h-276l-97 168h-4l-96 -168h-277zM410 524.5q0 -114.5 69.5 -184.5t170 -70t170 70t69.5 184.5t-69.5 187 t-170 72.5t-170 -72.5t-69.5 -187z" />
<glyph unicode="&#xf5;" horiz-adv-x="1298" d="M51 524q0 246 172 400.5t424 154.5q256 0 428 -154.5t172 -400.5q0 -244 -172 -396.5t-426 -152.5t-426 152.5t-172 396.5zM238 1157q0 313 262 313q57 0 105 -30.5t85 -61t68 -30.5q76 0 76 116h229q0 -313 -262 -313q-57 0 -105.5 30.5t-85.5 61.5t-67 31 q-76 0 -76 -117h-229zM410 524.5q0 -114.5 69.5 -184.5t170 -70t170 70t69.5 184.5t-69.5 187t-170 72.5t-170 -72.5t-69.5 -187z" />
<glyph unicode="&#xf6;" horiz-adv-x="1298" d="M51 524q0 246 172 400.5t424 154.5q256 0 428 -154.5t172 -400.5q0 -244 -172 -396.5t-426 -152.5t-426 152.5t-172 396.5zM266 1178v286h269v-286h-269zM410 524.5q0 -114.5 69.5 -184.5t170 -70t170 70t69.5 184.5t-69.5 187t-170 72.5t-170 -72.5t-69.5 -187z M766 1178v286h268v-286h-268z" />
<glyph unicode="&#xf7;" horiz-adv-x="1290" d="M86 455v266h1118v-266h-1118zM496 0v276h299v-276h-299zM496 901v277h299v-277h-299z" />
<glyph unicode="&#xf8;" horiz-adv-x="1296" d="M51 524q0 246 172 400.5t424 154.5q139 0 275 -57l86 119l122 -84l-81 -113q199 -162 198 -420q0 -244 -172 -396.5t-426 -152.5q-133 0 -260 52l-90 -125l-123 86l80 112q-205 160 -205 424zM410 524q0 -78 45 -149l282 391q-59 18 -88 18q-100 0 -169.5 -72.5 t-69.5 -187.5zM573 283q45 -12 76 -13q100 0 170 70t70 184q0 74 -39 142z" />
<glyph unicode="&#xf9;" horiz-adv-x="1421" d="M43 799v256h498v-629q0 -139 116 -139q100 0 160 97t60 224v191h-144v256h498v-754q0 -45 45 -45h88v-256h-326q-72 0 -108.5 31.5t-36.5 87.5v28q0 4 1 11.5t1 9.5v10h-4q-27 -51 -78 -100q-111 -102 -281 -103q-154 0 -250 94.5t-96 301.5v428h-143zM260 1464h363 l237 -307h-291z" />
<glyph unicode="&#xfa;" horiz-adv-x="1421" d="M43 799v256h498v-629q0 -139 116 -139q100 0 160 97t60 224v191h-144v256h498v-754q0 -45 45 -45h88v-256h-326q-72 0 -108.5 31.5t-36.5 87.5v28q0 4 1 11.5t1 9.5v10h-4q-27 -51 -78 -100q-111 -102 -281 -103q-154 0 -250 94.5t-96 301.5v428h-143zM492 1157l237 307 h363l-310 -307h-290z" />
<glyph unicode="&#xfb;" horiz-adv-x="1421" d="M43 799v256h498v-629q0 -139 116 -139q100 0 160 97t60 224v191h-144v256h498v-754q0 -45 45 -45h88v-256h-326q-72 0 -108.5 31.5t-36.5 87.5v28q0 4 1 11.5t1 9.5v10h-4q-27 -51 -78 -100q-111 -102 -281 -103q-154 0 -250 94.5t-96 301.5v428h-143zM301 1157l203 307 h344l203 -307h-277l-96 168h-4l-96 -168h-277z" />
<glyph unicode="&#xfc;" horiz-adv-x="1421" d="M43 799v256h498v-629q0 -139 116 -139q100 0 160 97t60 224v191h-144v256h498v-754q0 -45 45 -45h88v-256h-326q-72 0 -108.5 31.5t-36.5 87.5v28q0 4 1 11.5t1 9.5v10h-4q-27 -51 -78 -100q-111 -102 -281 -103q-154 0 -250 94.5t-96 301.5v428h-143zM293 1178v286h268 v-286h-268zM793 1178v286h268v-286h-268z" />
<glyph unicode="&#xfd;" horiz-adv-x="1284" d="M18 799v256h580v-256h-102l129 -391q6 -18 13 -54.5t7 -38.5q4 -29 4 -45h8q4 33 9 45q14 59 24 93l125 391h-96v256h547v-256h-109l-340 -891q-131 -338 -491 -338q-119 0 -220 41q-47 18 -81 41l108 252q23 -16 45 -25q53 -25 129 -24q133 0 174 86l4 10l-348 848h-119 zM465 1157l237 307h363l-309 -307h-291z" />
<glyph unicode="&#xfe;" horiz-adv-x="1310" d="M0 1208v256h500v-413q0 -49 -2 -66q-2 -10 -2 -24h4q23 31 63 59q90 59 211 59q213 0 348 -156.5t135 -394t-135 -395.5t-348 -158q-121 0 -211 56q-33 18 -63 53h-4q0 -14 2 -25q2 -16 2 -65v-148h133v-256h-621v256h133v1362h-145zM489 526q0 -256 213 -256 q90 0 144.5 75t54.5 183.5t-54 182t-145 73.5q-213 0 -213 -258z" />
<glyph unicode="&#xff;" horiz-adv-x="1284" d="M18 799v256h580v-256h-102l129 -391q6 -18 13 -54.5t7 -38.5q4 -29 4 -45h8q4 33 9 45q14 59 24 93l125 391h-96v256h547v-256h-109l-340 -891q-131 -338 -491 -338q-119 0 -220 41q-47 18 -81 41l108 252q23 -16 45 -25q53 -25 129 -24q133 0 174 86l4 10l-348 848h-119 zM266 1178v286h269v-286h-269zM766 1178v286h268v-286h-268z" />
<glyph unicode="&#x152;" horiz-adv-x="2074" d="M66 735.5q0 313.5 230 529.5t556 216q78 0 154.5 -8.5t115.5 -8.5h832v-432h-287v146h-301v-299h418v-285h-418v-307h326v145h286v-432h-856q-39 0 -115.5 -8t-154.5 -8q-326 0 -556 219t-230 532.5zM436 735.5q0 -190.5 120 -323.5t296 -133q74 0 109 8l38 6v878l-38 9 q-39 6 -109 6q-176 0 -296 -130t-120 -320.5z" />
<glyph unicode="&#x153;" horiz-adv-x="1980" d="M51 524q0 246 169 400.5t415 154.5q139 0 230 -41t177 -123h5q70 80 158.5 122t230.5 42q227 0 357 -142t130 -368q0 -23 -4 -67l-4 -43h-664q18 -94 86 -146.5t158 -52.5q92 0 203 53q47 23 88 54l131 -238q-57 -45 -121 -76q-160 -78 -330 -78q-150 0 -241.5 46.5 t-169.5 128.5h-4q-86 -86 -178.5 -130.5t-235.5 -44.5q-250 0 -418 152.5t-168 396.5zM408 524.5q0 -114.5 69.5 -184.5t170 -70t170 70t69.5 184.5t-69.5 187t-170 72.5t-170 -72.5t-69.5 -187zM1257 655h310q0 59 -39 108.5t-96 49.5q-140 0 -175 -158z" />
<glyph unicode="&#x178;" horiz-adv-x="1374" d="M20 1198v266h607v-266h-123l149 -270q8 -12 25 -51q2 -4 8 -21h4l8 21l25 51l149 270h-122v266h604v-266h-125l-359 -598v-334h164v-266h-694v266h164v334l-359 598h-125zM309 1579v287h269v-287h-269zM809 1579v287h268v-287h-268z" />
<glyph unicode="&#x2c6;" horiz-adv-x="995" d="M123 1559l203 307h344l202 -307h-276l-96 167h-4l-97 -167h-276z" />
<glyph unicode="&#x2dc;" horiz-adv-x="993" d="M84 1559q0 313 262 313q57 0 105.5 -31t85 -61.5t67.5 -30.5q76 0 76 117h229q0 -313 -262 -314q-57 0 -105 31t-85 61.5t-68 30.5q-76 0 -76 -116h-229z" />
<glyph unicode="&#x2013;" horiz-adv-x="1511" d="M145 455v266h1221v-266h-1221z" />
<glyph unicode="&#x2014;" horiz-adv-x="1921" d="M145 455v266h1631v-266h-1631z" />
<glyph unicode="&#x2018;" horiz-adv-x="534" d="M63 973l183 522h239l-110 -522h-312z" />
<glyph unicode="&#x2019;" horiz-adv-x="516" d="M74 973l110 522h312l-183 -522h-239z" />
<glyph unicode="&#x201a;" horiz-adv-x="548" d="M45 -182l111 522h301l-183 -522h-229z" />
<glyph unicode="&#x201c;" horiz-adv-x="942" d="M63 973l183 522h241l-110 -522h-314zM469 973l182 522h242l-111 -522h-313z" />
<glyph unicode="&#x201d;" horiz-adv-x="923" d="M74 973l110 522h314l-183 -522h-241zM479 973l111 522h313l-182 -522h-242z" />
<glyph unicode="&#x201e;" horiz-adv-x="942" d="M45 -182l111 522h301l-183 -522h-229zM438 -182l111 522h301l-182 -522h-230z" />
<glyph unicode="&#x2022;" horiz-adv-x="942" d="M90 596q0 158 111.5 269.5t269.5 111.5t269.5 -111.5t111.5 -269.5t-111.5 -269.5t-269.5 -111.5t-269.5 111.5t-111.5 269.5z" />
<glyph unicode="&#x2026;" horiz-adv-x="1896" d="M123 0v336h323v-336h-323zM786 0v336h324v-336h-324zM1450 0v336h324v-336h-324z" />
<glyph unicode="&#x2039;" horiz-adv-x="802" d="M59 578l336 421h324l-336 -421l336 -420h-324z" />
<glyph unicode="&#x203a;" horiz-adv-x="802" d="M84 158l336 420l-336 421h324l335 -421l-335 -420h-324z" />
<glyph unicode="&#x20ac;" horiz-adv-x="1249" d="M72 475v187h114q-10 72 -2 139h-112v186h147q70 219 264.5 360.5t442.5 141.5q84 0 166 -14l73 -15l-84 -303l-51 10q-57 10 -115 11q-207 0 -311 -191h440l-40 -186h-447q-6 -53 4 -139h414l-41 -187h-307q51 -84 131 -133t174 -49q59 0 137 16l61 15l58 -308 q-23 -8 -76 -20q-94 -20 -186 -21q-258 0 -443.5 137.5t-259.5 362.5h-151z" />
<glyph unicode="&#x2122;" horiz-adv-x="2004" d="M43 1241v223h836v-223h-287v-692h-258v692h-291zM918 549l71 915h242l149 -358q4 -8 10.5 -30.5t8.5 -26.5q4 -8 8 -33h4q4 25 8 33q2 4 8.5 26.5t10.5 30.5l149 358h242l67 -915h-260l-20 356v45q0 14 2 21h-4l-105 -256h-200l-105 256h-4q2 -6 2 -21v-45l-24 -356h-260 z" />
<glyph unicode="&#xe000;" horiz-adv-x="1055" d="M0 1055h1055v-1055h-1055v1055z" />
<glyph unicode="&#xfb01;" horiz-adv-x="1540" d="M76 799v256h143v43q0 98 34 173t83 114.5t116.5 64.5t122 32t111.5 7q45 0 90 -4l35 -4v-279l-20 4q-14 2 -66 2q-152 0 -152 -102v-51h783v-799h133v-256h-621v256h133v543h-428v-543h156v-256h-643v256h133v543h-143zM1006 1188v276h346v-276h-346z" />
<glyph unicode="&#xfb02;" horiz-adv-x="1529" d="M76 799v256h143v22q0 223 169 326.5t433 103.5q170 0 355 -32q90 -16 151 -33v-1032q0 -78 19.5 -107t78.5 -29q8 0 17.5 1t13.5 1h12v-280l-30 -4q-23 -2 -82 -2q-78 0 -137.5 13t-120 52t-93 123t-32.5 211v836q-27 8 -49 10q-41 8 -123 8q-227 0 -228 -158v-30h218 v-256h-218v-543h156v-256h-643v256h133v543h-143z" />
<glyph unicode="&#xfb03;" horiz-adv-x="2322" d="M76 799v256h143v43q0 98 34 173t83 114.5t116.5 64.5t122 32t111.5 7q45 0 90 -4l35 -4v-279l-20 4q-14 2 -66 2q-152 0 -152 -102v-51h428v43q0 98 34 173t83 114.5t117 64.5t122 32t111 7q45 0 91 -4l34 -4v-279l-20 4q-14 2 -66 2q-152 0 -151 -102v-51h782v-799h133 v-256h-620v256h133v543h-428v-543h155v-256h-643v256h133v543h-428v-543h156v-256h-643v256h133v543h-143zM1788 1188v276h346v-276h-346z" />
<glyph unicode="&#xfb04;" horiz-adv-x="2312" d="M76 799v256h143v43q0 98 34 173t83 114.5t116.5 64.5t122 32t111.5 7q45 0 90 -4l35 -4v-279l-20 4q-14 2 -66 2q-152 0 -152 -102v-51h428v22q0 223 169 326.5t434 103.5q170 0 354 -32q90 -16 151 -33v-1032q0 -78 19.5 -107t79.5 -29q8 0 17 1t13 1h13v-280l-31 -4 q-23 -2 -82 -2q-78 0 -137 13t-119.5 52t-93.5 123t-33 211v836q-27 8 -49 10q-41 8 -123 8q-227 0 -227 -158v-30h217v-256h-217v-543h155v-256h-643v256h133v543h-428v-543h156v-256h-643v256h133v543h-143z" />
<glyph horiz-adv-x="512" />
</font>
</defs>
</svg>
